<svg width="1440" height="635" viewBox="0 0 1440 635" fill="none" xmlns="http://www.w3.org/2000/svg">
    <g clip-path="url(#clip0_1293_4)">
        <path d="M1430.93 576.009C1257.67 576.918 1001.57 641.256 803.256 679H1488V578.433C1470.26 576.669 1451.17 575.904 1430.96 576.01L1430.93 576.009ZM153.979 610.949C76.3993 611.016 8.28661 620.138 -46.9326 631.685V679H517.704C384.652 627.833 260.41 610.857 153.963 610.949H153.979Z" fill="#502D16"/>
        <path d="M1434.48 436C1323.36 436.015 1216.78 522.647 1111.96 495.472C979.11 461.032 868.869 479.577 744.501 524.615C620.133 569.651 481.638 519.315 261.167 463.683C125.621 429.479 16.8 447.348 -46.9326 466.188V771H1488V443.421C1470.04 438.204 1452.21 436.001 1434.48 436.003L1434.48 436Z" fill="#D38D5F"/>
        <path d="M157.608 473C70.7036 473.119 0.266582 489.82 -46.9326 505.58V771H1488V496.059C1378.37 445.941 1308.51 495.463 1264.2 516.226C1216.23 538.706 1162.27 587.406 1050.34 536.827C938.418 486.247 832.486 508.738 752.537 540.585C672.589 572.432 618.631 574.301 348.812 499.366C279.246 480.047 214.861 472.923 157.614 473.001L157.608 473Z" fill="#C87137"/>
        <path d="M154.697 504.002C69.4701 503.787 2.70055 517.896 -46.9326 535.057V771H1488V534.687C1343.85 485.568 1238.86 564.945 1030.35 617.382C784.513 679.205 786.509 641.738 398.779 538.705C304.874 513.751 223.747 504.181 154.714 504.006L154.697 504.002Z" fill="#A05A2C"/>
        <path d="M1397.75 578.004C1288.83 578.396 1183.31 643.117 970.608 712.635C654.033 816.101 557.935 741.816 283.78 664.881C143.947 625.643 30.587 642.304 -46.9326 668.048V771H1488V592.634C1456.27 582.397 1426.9 577.897 1397.77 578.002L1397.75 578.004Z" fill="#784421"/>
        <path d="M248.73 569.026C132.856 569.782 30.7097 592.873 -48 618.739V718.512C84.1425 670.998 251.516 660.272 524.539 726.053C903.144 817.271 1232.48 864.349 1488 767.24C1149.41 864.35 872.396 711.344 493.808 602.463C408.032 577.796 325.422 568.52 248.789 569.019L248.73 569.026Z" fill="#C87137"/>
        <path d="M1054.54 514.148C1051.01 514.428 1046.97 515.062 1044.7 517.179C1043.44 518.645 1043.5 520.384 1043.39 521.998C1043.43 525.225 1044.77 528.337 1046.85 531.124C1045.33 531.537 1043.43 532.365 1043.59 533.633C1044.08 535.179 1046.51 535.787 1048.39 536.375C1052.34 537.491 1056.29 538.753 1060.57 539.242C1061.99 539.417 1063.86 538.962 1064.14 537.843C1064.4 537.121 1064.24 536.382 1064.06 535.686C1069.96 534.063 1074.88 530.946 1078.7 527.482C1080.29 525.404 1078.94 523.036 1077.29 521.326C1072.5 516.312 1063.56 513.472 1054.54 514.148L1054.54 514.148Z" fill="black"/>
        <path d="M1047.85 531.358C1047.85 531.358 1039.08 533.26 1048.95 536.033C1061.04 539.428 1064.77 540.184 1063.26 535.387C1069.02 534.009 1073.96 530.797 1077.63 527.745C1081.39 524.611 1074.93 518.174 1066.21 515.733C1057.29 513.235 1045.93 514.94 1044.71 518.269C1042.24 525.001 1047.85 531.358 1047.85 531.358L1047.85 531.358Z" fill="#C7B7B7"/>
        <path d="M1065.79 515.62C1065.09 515.435 1064.37 515.275 1063.65 515.14C1060.86 520.275 1054.5 533.835 1054.53 533.361C1054.56 532.843 1058.56 520.054 1061.09 514.763C1061.07 514.761 1061.04 514.756 1061.02 514.753C1060.76 514.725 1060.5 514.702 1060.24 514.68C1060.15 514.672 1060.06 514.663 1059.97 514.656C1059.78 514.642 1059.59 514.629 1059.41 514.617C1059.34 514.613 1059.26 514.605 1059.19 514.601C1058.88 514.583 1058.57 514.573 1058.26 514.564C1057.95 514.554 1057.64 514.547 1057.33 514.544C1055.87 518.928 1052.67 528.531 1052.89 532.864C1051.73 528.887 1053.26 519.275 1054.03 514.664C1053.88 514.677 1053.73 514.692 1053.57 514.706C1053.42 514.721 1053.27 514.737 1053.12 514.753C1052.83 514.786 1052.53 514.821 1052.24 514.862C1051.96 514.902 1051.68 514.947 1051.4 514.995C1051.26 515.019 1051.12 515.043 1050.99 515.069C1050.85 515.094 1050.72 515.121 1050.58 515.149C1050.34 518.521 1048.97 526.723 1051.2 532.476C1048.9 529.765 1047.5 522.481 1047.72 515.962C1047.62 516.001 1047.52 516.04 1047.42 516.08C1047.33 516.119 1047.23 516.16 1047.14 516.201C1047.12 516.21 1047.1 516.219 1047.08 516.229C1047.01 516.26 1046.95 516.294 1046.88 516.326C1046.79 516.368 1046.71 516.41 1046.63 516.454C1046.62 516.458 1046.61 516.46 1046.6 516.464C1046.53 516.504 1046.46 516.545 1046.39 516.586C1046.24 516.668 1046.1 516.753 1045.98 516.839C1045.97 516.847 1045.95 516.856 1045.94 516.863C1045.88 516.91 1045.81 516.957 1045.74 517.006C1045.69 517.047 1045.64 517.088 1045.58 517.13C1045.56 517.148 1045.54 517.168 1045.52 517.186C1045.49 517.214 1045.46 517.243 1045.43 517.271C1045.4 517.293 1045.38 517.315 1045.35 517.338C1045.34 517.352 1045.32 517.365 1045.31 517.379C1045.28 517.405 1045.26 517.432 1045.24 517.457C1045.19 517.509 1045.14 517.559 1045.1 517.612C1045.07 517.649 1045.04 517.689 1045.01 517.727C1045 517.742 1044.98 517.758 1044.97 517.774C1044.97 517.787 1044.96 517.8 1044.95 517.812C1044.92 517.854 1044.9 517.893 1044.87 517.934C1044.87 517.944 1044.86 517.953 1044.85 517.962C1044.83 518.008 1044.8 518.056 1044.78 518.102C1044.78 518.107 1044.78 518.112 1044.77 518.116C1044.75 518.167 1044.73 518.219 1044.71 518.27C1044.71 518.274 1044.71 518.278 1044.71 518.282C1044.87 522.155 1046.05 527.413 1049.75 531.969C1047.57 530.536 1046.79 529.184 1045.46 527.557C1045.49 527.633 1045.52 527.711 1045.56 527.785C1045.63 527.93 1045.7 528.071 1045.78 528.209C1045.84 528.33 1045.9 528.445 1045.96 528.56C1045.97 528.577 1045.98 528.595 1045.99 528.612C1046.02 528.66 1046.04 528.709 1046.07 528.756C1046.12 528.835 1046.16 528.915 1046.2 528.991C1046.27 529.107 1046.34 529.221 1046.41 529.33C1046.41 529.339 1046.42 529.349 1046.42 529.359C1046.44 529.39 1046.46 529.425 1046.48 529.456C1046.53 529.532 1046.58 529.606 1046.62 529.677C1046.73 529.835 1046.82 529.974 1046.91 530.112C1046.95 530.173 1047 530.239 1047.04 530.296C1047.04 530.304 1047.05 530.313 1047.05 530.321C1047.27 530.622 1047.45 530.863 1047.58 531.036C1047.59 531.047 1047.6 531.063 1047.61 531.073C1047.76 531.258 1047.85 531.36 1047.85 531.36C1047.85 531.36 1047.54 531.426 1047.11 531.553C1046.89 531.616 1046.64 531.695 1046.38 531.787C1046.21 531.849 1046.03 531.916 1045.86 531.991C1045.77 532.028 1045.68 532.069 1045.6 532.109C1045.51 532.149 1045.43 532.187 1045.35 532.23C1044.9 532.466 1044.52 532.746 1044.36 533.065C1044.32 533.123 1044.3 533.185 1044.28 533.245C1044.27 533.306 1044.26 533.364 1044.26 533.427C1044.26 533.428 1044.26 533.429 1044.26 533.43C1044.26 533.586 1044.32 533.751 1044.44 533.922C1044.48 533.991 1044.54 534.061 1044.61 534.132C1045.04 534.558 1045.88 535.023 1047.31 535.522C1047.31 535.523 1047.31 535.523 1047.31 535.523C1047.43 535.564 1047.55 535.608 1047.68 535.649C1047.68 535.65 1047.68 535.65 1047.68 535.65C1048.07 535.776 1048.49 535.903 1048.95 536.032C1051.59 536.775 1053.84 537.394 1055.72 537.854C1056.52 538.051 1057.26 538.216 1057.93 538.353C1059.11 538.593 1060.08 538.737 1060.87 538.773C1061.06 538.782 1061.24 538.786 1061.41 538.782C1061.88 538.771 1062.27 538.709 1062.58 538.594C1062.6 538.587 1062.62 538.579 1062.64 538.572C1062.71 538.545 1062.77 538.517 1062.83 538.485C1062.91 538.444 1062.98 538.399 1063.04 538.349C1063.07 538.324 1063.11 538.296 1063.14 538.269C1063.17 538.24 1063.19 538.212 1063.22 538.181C1063.22 538.179 1063.22 538.177 1063.23 538.174C1063.28 538.118 1063.32 538.055 1063.36 537.99C1063.4 537.921 1063.44 537.848 1063.47 537.77C1063.49 537.691 1063.52 537.608 1063.54 537.52C1063.55 537.475 1063.55 537.431 1063.56 537.383C1063.58 537.245 1063.58 537.095 1063.57 536.935C1063.57 536.934 1063.58 536.932 1063.58 536.931C1063.57 536.716 1063.53 536.481 1063.48 536.225C1063.48 536.225 1063.48 536.223 1063.48 536.222C1063.43 535.965 1063.35 535.687 1063.26 535.389C1063.44 535.345 1063.62 535.299 1063.8 535.252C1063.85 535.241 1063.89 535.229 1063.93 535.218C1063.98 535.206 1064.02 535.192 1064.07 535.18C1064.22 535.139 1064.37 535.098 1064.52 535.055C1064.55 535.047 1064.57 535.037 1064.6 535.029C1064.69 535.004 1064.77 534.977 1064.86 534.951C1064.99 534.91 1065.13 534.869 1065.26 534.826C1065.46 534.763 1065.65 534.698 1065.85 534.632C1065.87 534.624 1065.89 534.616 1065.91 534.608C1065.95 534.598 1065.98 534.588 1066.01 534.577C1066.19 534.512 1066.38 534.445 1066.56 534.377C1066.77 534.297 1066.98 534.214 1067.19 534.13C1067.39 534.052 1067.59 533.973 1067.78 533.891C1067.79 533.885 1067.81 533.881 1067.82 533.874C1067.86 533.861 1067.89 533.848 1067.92 533.834C1068.1 533.759 1068.27 533.681 1068.44 533.603C1064.97 534.636 1062.13 535.103 1061.5 534.98C1066.43 533.316 1073.04 529.347 1078.67 524.985C1078.65 524.876 1078.63 524.768 1078.6 524.657C1078.49 524.229 1078.3 523.786 1078.05 523.339C1078.04 523.323 1078.03 523.307 1078.02 523.291C1078 523.266 1077.99 523.239 1077.97 523.213C1077.92 523.123 1077.86 523.033 1077.8 522.943C1077.74 522.853 1077.67 522.763 1077.61 522.673C1077.55 522.593 1077.49 522.514 1077.43 522.434C1077.41 522.405 1077.39 522.376 1077.36 522.347C1077.34 522.313 1077.31 522.278 1077.28 522.243C1073.3 525.979 1065.89 532.113 1059.8 534.464C1066.03 529.846 1072.55 524.432 1076.01 520.912C1075.31 520.265 1074.49 519.631 1073.57 519.031C1069.47 524.148 1060.8 532.499 1058.11 534.076C1062.28 530.079 1068.69 522.081 1071.59 517.871C1070.67 517.386 1069.69 516.938 1068.66 516.543C1066.46 520.415 1060.93 527.862 1056.67 533.692C1058.14 530.043 1064.36 519.218 1066.36 515.777C1066.31 515.763 1066.26 515.747 1066.21 515.734C1066.07 515.695 1065.93 515.659 1065.79 515.622L1065.79 515.62Z" fill="#AC9292"/>
        <path d="M1046.1 533.077C1046.1 533.077 1044.86 534.099 1050.28 535.259C1056.64 536.622 1060.06 538.575 1061.99 537.248C1062.65 538.076 1059.68 538.237 1055.57 537.143C1051.46 536.049 1043.42 534.474 1046.1 533.077L1046.1 533.077Z" fill="#C7B7B7"/>
        <path d="M1091.43 517.01C1086.94 515.591 1081.51 514.371 1076.85 515.964C1073.99 517.226 1072.47 519.508 1070.86 521.544C1067.95 525.744 1066.7 530.451 1066.64 535.108C1064.44 534.878 1061.4 534.988 1060.43 536.711C1059.6 538.959 1061.97 540.978 1063.67 542.686C1067.4 546.13 1070.98 549.761 1075.66 552.556C1077.21 553.5 1079.87 553.858 1081.23 552.547C1082.21 551.745 1082.69 550.708 1083.11 549.714C1091.69 550.597 1100.44 549.042 1108.2 546.491C1112.02 544.605 1112.57 540.854 1112.15 537.806C1111 528.89 1102.87 520.694 1091.43 517.011L1091.43 517.01Z" fill="black"/>
        <path d="M1067.63 535.918C1067.63 535.918 1055.36 533.95 1064.67 542.528C1076.06 553.034 1079.84 555.9 1082.43 548.925C1090.61 550.052 1099.48 548.389 1106.68 546.29C1114.07 544.134 1112.21 532.531 1103.98 524.963C1095.57 517.219 1080.38 513.688 1075.86 517.382C1066.72 524.851 1067.63 535.918 1067.63 535.918L1067.63 535.918Z" fill="#C7B7B7"/>
        <path d="M1103.59 524.605C1102.91 524.012 1102.2 523.442 1101.46 522.902C1093.4 528.139 1073.34 542.486 1073.81 541.886C1074.32 541.231 1090.84 526.693 1098.73 521.119C1098.7 521.104 1098.68 521.086 1098.65 521.071C1098.37 520.904 1098.08 520.742 1097.79 520.582C1097.68 520.526 1097.58 520.468 1097.48 520.413C1097.27 520.299 1097.06 520.19 1096.84 520.08C1096.76 520.038 1096.68 519.992 1096.6 519.95C1096.24 519.771 1095.87 519.598 1095.51 519.429C1095.15 519.259 1094.78 519.094 1094.41 518.935C1088.65 523.874 1076.01 534.695 1072.3 540.418C1074.56 534.681 1085.2 523.007 1090.35 517.422C1090.15 517.361 1089.96 517.304 1089.76 517.247C1089.57 517.19 1089.37 517.133 1089.18 517.08C1088.79 516.972 1088.41 516.869 1088.02 516.777C1087.64 516.684 1087.26 516.599 1086.89 516.521C1086.7 516.482 1086.51 516.444 1086.32 516.409C1086.14 516.373 1085.95 516.341 1085.77 516.309C1082.38 520.55 1073.22 530.484 1070.63 539.062C1070.35 534.388 1075.34 524.243 1081.58 515.914C1081.43 515.913 1081.27 515.914 1081.12 515.917C1080.97 515.92 1080.82 515.926 1080.67 515.933C1080.64 515.935 1080.61 515.935 1080.57 515.937C1080.46 515.943 1080.35 515.953 1080.24 515.961C1080.1 515.972 1079.96 515.984 1079.82 515.998C1079.81 516 1079.8 515.998 1079.78 515.999C1079.66 516.013 1079.53 516.031 1079.41 516.048C1079.16 516.082 1078.92 516.122 1078.69 516.17C1078.67 516.174 1078.65 516.18 1078.63 516.184C1078.5 516.21 1078.38 516.237 1078.26 516.267C1078.15 516.293 1078.05 516.319 1077.95 516.348C1077.91 516.36 1077.87 516.375 1077.82 516.388C1077.76 516.408 1077.69 516.429 1077.63 516.45C1077.58 516.467 1077.53 516.483 1077.49 516.501C1077.46 516.511 1077.42 516.521 1077.39 516.532C1077.34 516.552 1077.29 516.576 1077.24 516.597C1077.13 516.639 1077.03 516.681 1076.93 516.727C1076.86 516.76 1076.78 516.795 1076.71 516.83C1076.69 516.844 1076.66 516.858 1076.63 516.873C1076.61 516.886 1076.59 516.898 1076.56 516.911C1076.49 516.95 1076.43 516.988 1076.36 517.029C1076.34 517.039 1076.33 517.048 1076.31 517.057C1076.24 517.102 1076.17 517.153 1076.1 517.202C1076.09 517.206 1076.08 517.211 1076.08 517.215C1076 517.269 1075.93 517.326 1075.86 517.383C1075.85 517.388 1075.85 517.394 1075.85 517.398C1072.49 522.494 1069.09 529.899 1069.35 537.671C1068.05 534.712 1068.35 532.568 1068.24 529.786C1068.21 529.902 1068.18 530.02 1068.16 530.133C1068.11 530.357 1068.07 530.577 1068.03 530.792C1067.99 530.98 1067.96 531.161 1067.93 531.342C1067.93 531.368 1067.92 531.395 1067.91 531.421C1067.9 531.496 1067.89 531.575 1067.88 531.649C1067.86 531.774 1067.84 531.9 1067.82 532.021C1067.8 532.206 1067.78 532.387 1067.75 532.562C1067.75 532.577 1067.75 532.592 1067.75 532.607C1067.74 532.658 1067.74 532.713 1067.73 532.764C1067.72 532.885 1067.71 533.006 1067.7 533.122C1067.68 533.377 1067.66 533.604 1067.64 533.829C1067.64 533.929 1067.63 534.037 1067.63 534.131C1067.62 534.144 1067.62 534.16 1067.62 534.173C1067.6 534.669 1067.6 535.073 1067.6 535.367C1067.6 535.384 1067.6 535.411 1067.6 535.428C1067.61 535.743 1067.63 535.922 1067.63 535.922C1067.63 535.922 1067.2 535.85 1066.56 535.794C1066.24 535.766 1065.87 535.742 1065.47 535.73C1065.21 535.723 1064.93 535.722 1064.66 535.73C1064.52 535.734 1064.38 535.743 1064.24 535.752C1064.1 535.761 1063.96 535.767 1063.83 535.782C1063.07 535.861 1062.37 536.034 1061.87 536.363C1061.78 536.422 1061.69 536.488 1061.62 536.559C1061.54 536.629 1061.48 536.701 1061.42 536.782C1061.42 536.783 1061.42 536.785 1061.42 536.786C1061.28 536.989 1061.19 537.231 1061.18 537.513C1061.18 537.627 1061.18 537.748 1061.2 537.876C1061.32 538.642 1061.9 539.667 1063.16 541.037C1063.17 541.039 1063.17 541.04 1063.17 541.042C1063.27 541.154 1063.38 541.271 1063.49 541.389C1063.49 541.39 1063.49 541.392 1063.5 541.393C1063.84 541.749 1064.23 542.127 1064.67 542.527C1067.16 544.825 1069.28 546.762 1071.12 548.306C1071.9 548.967 1072.63 549.554 1073.31 550.072C1074.51 550.977 1075.54 551.654 1076.46 552.101C1076.68 552.209 1076.89 552.304 1077.09 552.384C1077.67 552.609 1078.2 552.726 1078.68 552.736C1078.71 552.736 1078.74 552.735 1078.76 552.734C1078.87 552.734 1078.98 552.731 1079.08 552.72C1079.21 552.705 1079.33 552.681 1079.45 552.648C1079.51 552.632 1079.58 552.614 1079.64 552.594C1079.7 552.572 1079.76 552.549 1079.82 552.523C1079.83 552.521 1079.83 552.519 1079.83 552.516C1079.94 552.468 1080.06 552.41 1080.16 552.346C1080.28 552.277 1080.38 552.2 1080.49 552.113C1080.6 552.026 1080.7 551.931 1080.81 551.826C1080.86 551.772 1080.91 551.719 1080.96 551.661C1081.11 551.49 1081.25 551.298 1081.39 551.086C1081.39 551.085 1081.39 551.084 1081.39 551.083C1081.58 550.8 1081.75 550.478 1081.92 550.121C1081.92 550.12 1081.93 550.118 1081.93 550.117C1082.1 549.759 1082.27 549.36 1082.43 548.925C1082.69 548.961 1082.94 548.993 1083.2 549.023C1083.27 549.03 1083.33 549.038 1083.39 549.045C1083.46 549.052 1083.52 549.057 1083.59 549.064C1083.8 549.087 1084.02 549.11 1084.24 549.129C1084.28 549.133 1084.33 549.135 1084.37 549.139C1084.49 549.149 1084.62 549.158 1084.75 549.168C1084.95 549.183 1085.15 549.197 1085.35 549.209C1085.64 549.227 1085.93 549.242 1086.23 549.253C1086.26 549.255 1086.29 549.256 1086.33 549.257C1086.38 549.259 1086.42 549.263 1086.47 549.264C1086.75 549.274 1087.03 549.278 1087.31 549.282C1087.64 549.287 1087.97 549.287 1088.3 549.285C1088.61 549.283 1088.92 549.279 1089.22 549.27C1089.25 549.27 1089.27 549.273 1089.29 549.272C1089.34 549.271 1089.39 549.27 1089.44 549.268C1089.72 549.259 1090 549.245 1090.28 549.232C1085.17 548.815 1081.33 547.985 1080.68 547.506C1088.14 547.846 1099.7 546.043 1110.46 543.243C1110.54 543.092 1110.61 542.941 1110.68 542.783C1110.93 542.173 1111.12 541.504 1111.22 540.795C1111.22 540.77 1111.22 540.745 1111.23 540.719C1111.23 540.678 1111.23 540.635 1111.24 540.593C1111.26 540.449 1111.27 540.302 1111.28 540.154C1111.29 540.008 1111.3 539.86 1111.3 539.71C1111.3 539.579 1111.31 539.445 1111.31 539.311C1111.31 539.263 1111.31 539.214 1111.31 539.165C1111.3 539.107 1111.3 539.047 1111.3 538.988C1103.1 541.814 1088.59 546.014 1079.13 545.981C1090.83 543.148 1103.62 539.432 1111 536.622C1110.75 535.429 1110.34 534.193 1109.79 532.953C1100.18 537.509 1082.13 543.942 1077.45 544.625C1086.12 541.556 1101.15 534.438 1108.49 530.453C1107.82 529.359 1107.06 528.283 1106.18 527.249C1100 531.155 1086.53 538 1076.07 543.398C1081.19 539.418 1098.57 528.543 1104.12 525.095C1104.08 525.052 1104.03 525.008 1103.99 524.965C1103.86 524.844 1103.72 524.727 1103.59 524.608L1103.59 524.605Z" fill="#AC9292"/>
        <path d="M1063.95 537.259C1063.95 537.259 1061.53 537.957 1066.97 542.196C1073.36 547.179 1075.66 551.432 1079.2 550.693C1079.23 552.096 1075.52 550.805 1071.59 547.311C1067.66 543.818 1059.46 537.716 1063.95 537.26L1063.95 537.259Z" fill="#C7B7B7"/>
        <path d="M430.516 517.717C428.324 518.034 425.821 518.671 424.466 520.557C423.723 521.856 423.811 523.366 423.792 524.769C423.912 527.571 424.839 530.245 426.216 532.622C425.284 533.013 424.119 533.772 424.257 534.87C424.606 536.202 426.145 536.678 427.33 537.15C429.834 538.035 432.335 539.048 435.02 539.382C435.91 539.504 437.067 539.069 437.206 538.091C437.348 537.459 437.227 536.821 437.094 536.22C440.732 534.686 443.706 531.875 445.992 528.786C446.924 526.948 446.011 524.92 444.93 523.47C441.791 519.216 436.127 516.939 430.517 517.717L430.516 517.717Z" fill="black"/>
        <path d="M426.849 532.804C426.849 532.804 421.432 534.641 427.674 536.84C435.318 539.534 437.67 540.111 436.588 535.977C440.143 534.659 443.132 531.765 445.331 529.037C447.588 526.236 443.363 520.783 437.85 518.847C432.207 516.866 425.17 518.586 424.504 521.503C423.16 527.402 426.849 532.804 426.849 532.804L426.849 532.804Z" fill="#FFCCAA"/>
        <path d="M437.585 518.758C437.142 518.612 436.69 518.488 436.235 518.386C434.641 522.905 431.071 534.815 431.075 534.402C431.078 533.952 433.202 522.761 434.624 518.113C434.609 518.111 434.595 518.107 434.581 518.106C434.418 518.087 434.254 518.072 434.092 518.058C434.035 518.054 433.978 518.048 433.92 518.043C433.803 518.035 433.688 518.028 433.57 518.022C433.525 518.019 433.481 518.014 433.436 518.012C433.241 518.003 433.044 518.001 432.851 517.999C432.656 517.997 432.463 517.998 432.27 518.002C431.488 521.84 429.776 530.247 430.041 534.006C429.201 530.576 429.872 522.197 430.214 518.176C430.119 518.19 430.025 518.206 429.932 518.222C429.838 518.238 429.744 518.255 429.651 518.272C429.467 518.307 429.285 518.344 429.107 518.385C428.928 518.426 428.753 518.471 428.582 518.519C428.496 518.542 428.412 518.566 428.328 518.591C428.244 518.617 428.16 518.643 428.078 518.67C428.023 521.603 427.413 528.756 428.975 533.705C427.46 531.398 426.366 525.102 426.313 519.437C426.252 519.472 426.191 519.508 426.133 519.545C426.074 519.581 426.018 519.619 425.962 519.656C425.949 519.665 425.936 519.673 425.923 519.682C425.881 519.71 425.841 519.741 425.801 519.77C425.748 519.809 425.696 519.847 425.646 519.887C425.641 519.89 425.636 519.892 425.631 519.896C425.586 519.932 425.543 519.969 425.5 520.006C425.413 520.081 425.329 520.157 425.252 520.235C425.245 520.242 425.239 520.25 425.232 520.257C425.191 520.299 425.15 520.341 425.112 520.384C425.079 520.422 425.046 520.458 425.016 520.496C425.002 520.512 424.99 520.529 424.977 520.546C424.958 520.571 424.939 520.597 424.921 520.622C424.906 520.641 424.892 520.661 424.878 520.681C424.87 520.693 424.861 520.706 424.852 520.718C424.837 520.741 424.824 520.765 424.809 520.788C424.78 520.833 424.753 520.878 424.727 520.925C424.709 520.958 424.691 520.993 424.674 521.026C424.668 521.04 424.66 521.054 424.653 521.068C424.649 521.079 424.644 521.091 424.639 521.102C424.623 521.138 424.609 521.173 424.595 521.209C424.591 521.218 424.588 521.226 424.585 521.234C424.57 521.274 424.557 521.316 424.544 521.357C424.543 521.361 424.541 521.365 424.539 521.369C424.526 521.414 424.515 521.459 424.504 521.505C424.504 521.508 424.505 521.512 424.503 521.515C424.718 524.875 425.609 529.416 428.054 533.294C426.649 532.096 426.125 530.938 425.242 529.554C425.266 529.619 425.289 529.686 425.314 529.749C425.362 529.874 425.413 529.995 425.461 530.113C425.504 530.217 425.546 530.316 425.589 530.414C425.595 530.429 425.6 530.444 425.606 530.459C425.624 530.5 425.643 530.542 425.661 530.582C425.691 530.65 425.722 530.718 425.752 530.783C425.797 530.883 425.843 530.98 425.887 531.073C425.891 531.081 425.894 531.09 425.898 531.098C425.912 531.125 425.925 531.155 425.938 531.181C425.97 531.246 426.003 531.309 426.034 531.37C426.102 531.505 426.162 531.624 426.225 531.742C426.253 531.794 426.282 531.85 426.309 531.899C426.312 531.906 426.318 531.914 426.321 531.921C426.462 532.177 426.582 532.383 426.672 532.53C426.678 532.539 426.686 532.553 426.691 532.561C426.789 532.719 426.849 532.806 426.849 532.806C426.849 532.806 426.658 532.87 426.389 532.989C426.255 533.049 426.102 533.122 425.943 533.208C425.837 533.265 425.73 533.328 425.623 533.396C425.57 533.43 425.516 533.467 425.464 533.504C425.412 533.54 425.361 533.575 425.312 533.614C425.039 533.829 424.813 534.08 424.717 534.361C424.7 534.412 424.685 534.466 424.676 534.519C424.668 534.571 424.666 534.622 424.668 534.677C424.668 534.677 424.667 534.679 424.666 534.68C424.672 534.815 424.713 534.957 424.793 535.103C424.825 535.162 424.864 535.222 424.91 535.282C425.188 535.643 425.724 536.029 426.634 536.432C426.635 536.432 426.636 536.432 426.637 536.433C426.712 536.466 426.788 536.501 426.868 536.534C426.869 536.535 426.87 536.535 426.871 536.535C427.114 536.636 427.381 536.737 427.673 536.84C429.345 537.429 430.765 537.919 431.95 538.279C432.457 538.433 432.923 538.561 433.346 538.666C434.088 538.85 434.698 538.954 435.194 538.969C435.312 538.972 435.424 538.972 435.529 538.965C435.824 538.945 436.066 538.883 436.258 538.777C436.27 538.771 436.28 538.763 436.292 538.757C436.333 538.732 436.374 538.706 436.41 538.677C436.457 538.639 436.497 538.599 436.536 538.554C436.555 538.532 436.576 538.507 436.594 538.483C436.612 538.457 436.628 538.432 436.644 538.405C436.645 538.403 436.646 538.401 436.646 538.399C436.676 538.348 436.703 538.293 436.725 538.236C436.748 538.175 436.768 538.111 436.784 538.042C436.8 537.974 436.813 537.901 436.821 537.824C436.826 537.784 436.829 537.746 436.832 537.705C436.839 537.584 436.836 537.454 436.827 537.315C436.827 537.314 436.828 537.312 436.828 537.312C436.816 537.125 436.788 536.922 436.747 536.701C436.747 536.7 436.748 536.698 436.749 536.698C436.708 536.476 436.653 536.236 436.585 535.979C436.698 535.937 436.809 535.894 436.92 535.849C436.947 535.838 436.974 535.827 437.001 535.816C437.029 535.805 437.056 535.792 437.083 535.781C437.176 535.742 437.268 535.703 437.36 535.663C437.378 535.655 437.395 535.646 437.413 535.638C437.466 535.614 437.519 535.589 437.571 535.565C437.654 535.527 437.737 535.488 437.819 535.448C437.94 535.389 438.06 535.329 438.179 535.267C438.192 535.26 438.206 535.252 438.22 535.245C438.239 535.235 438.259 535.226 438.278 535.216C438.391 535.156 438.503 535.093 438.615 535.03C438.746 534.957 438.875 534.88 439.004 534.803C439.124 534.731 439.244 534.658 439.362 534.583C439.371 534.577 439.381 534.573 439.39 534.567C439.409 534.555 439.429 534.543 439.448 534.531C439.556 534.462 439.661 534.39 439.767 534.318C437.63 535.289 435.872 535.755 435.472 535.662C438.506 534.111 442.51 530.525 445.9 526.618C445.885 526.524 445.868 526.43 445.847 526.335C445.765 525.966 445.635 525.585 445.461 525.202C445.454 525.189 445.449 525.175 445.442 525.161C445.432 525.139 445.42 525.117 445.409 525.094C445.373 525.017 445.332 524.94 445.292 524.863C445.252 524.786 445.211 524.71 445.168 524.633C445.129 524.565 445.09 524.497 445.049 524.429C445.035 524.405 445.021 524.38 445.006 524.355C444.988 524.326 444.968 524.296 444.95 524.267C442.576 527.595 438.131 533.079 434.4 535.249C438.152 531.107 442.062 526.267 444.118 523.137C443.66 522.59 443.129 522.057 442.539 521.556C440.132 526.086 434.968 533.521 433.334 534.948C435.82 531.388 439.586 524.307 441.273 520.589C440.684 520.188 440.057 519.82 439.401 519.499C438.145 522.908 434.908 529.492 432.422 534.644C433.235 531.445 436.799 521.912 437.944 518.882C437.912 518.87 437.882 518.858 437.851 518.847C437.763 518.816 437.674 518.788 437.586 518.759L437.585 518.758Z" fill="#FFB380"/>
        <path d="M425.806 534.334C425.806 534.334 425.064 535.248 428.478 536.14C432.492 537.19 434.679 538.813 435.849 537.621C436.282 538.326 434.435 538.528 431.838 537.665C429.241 536.802 424.177 535.604 425.806 534.334L425.806 534.334Z" fill="#FFCCAA"/>
        <path d="M388.734 528.549C387.654 530.483 386.638 532.858 387.313 535.08C387.894 536.46 389.146 537.307 390.249 538.175C392.547 539.782 395.234 540.671 397.958 541.022C397.702 542 397.597 543.386 398.553 543.944C399.823 544.475 401.137 543.543 402.232 542.888C404.456 541.438 406.78 540.067 408.677 538.138C409.315 537.505 409.673 536.322 408.98 535.617C408.565 535.12 407.984 534.829 407.426 534.569C408.418 530.747 407.993 526.677 406.929 522.985C406.036 521.127 403.87 520.62 402.062 520.598C396.776 520.506 391.526 523.621 388.734 528.549L388.734 528.549Z" fill="black"/>
        <path d="M398.488 540.629C398.488 540.629 396.655 546.048 402.195 542.427C408.979 537.993 410.867 536.475 406.926 534.822C408.039 531.198 407.557 527.066 406.727 523.662C405.874 520.167 398.976 520.209 394.088 523.411C389.086 526.689 386.176 533.324 388.088 535.624C391.956 540.276 398.488 540.629 398.488 540.629L398.488 540.629Z" fill="#FFCCAA"/>
        <path d="M393.856 523.567C393.471 523.831 393.098 524.114 392.741 524.413C395.361 528.426 402.651 538.498 402.325 538.244C401.97 537.968 394.373 529.481 391.545 525.527C391.535 525.538 391.523 525.546 391.513 525.557C391.399 525.675 391.288 525.796 391.179 525.917C391.14 525.959 391.101 526.001 391.062 526.044C390.984 526.132 390.908 526.219 390.832 526.308C390.803 526.343 390.772 526.375 390.743 526.409C390.618 526.559 390.496 526.714 390.377 526.866C390.257 527.02 390.14 527.174 390.027 527.329C392.6 530.282 398.236 536.75 401.382 538.824C398.147 537.407 391.901 531.782 388.915 529.068C388.869 529.152 388.825 529.236 388.781 529.32C388.736 529.404 388.692 529.489 388.65 529.573C388.566 529.741 388.484 529.908 388.409 530.074C388.333 530.241 388.262 530.407 388.196 530.572C388.162 530.655 388.13 530.737 388.099 530.818C388.068 530.9 388.038 530.983 388.01 531.064C390.306 532.891 395.616 537.721 400.495 539.488C397.743 539.29 392.078 536.333 387.546 532.932C387.537 533.002 387.529 533.073 387.522 533.141C387.516 533.209 387.511 533.277 387.507 533.344C387.506 533.36 387.504 533.375 387.504 533.391C387.501 533.442 387.501 533.492 387.5 533.542C387.498 533.607 387.497 533.672 387.498 533.736C387.498 533.741 387.496 533.747 387.497 533.753C387.498 533.811 387.501 533.867 387.505 533.924C387.511 534.038 387.521 534.151 387.536 534.26C387.537 534.269 387.539 534.279 387.541 534.288C387.549 534.347 387.558 534.405 387.569 534.462C387.578 534.511 387.588 534.559 387.599 534.606C387.604 534.627 387.61 534.647 387.615 534.667C387.623 534.698 387.633 534.728 387.641 534.758C387.648 534.781 387.655 534.805 387.663 534.828C387.667 534.842 387.671 534.857 387.676 534.871C387.685 534.897 387.696 534.922 387.705 534.947C387.724 534.998 387.743 535.047 387.764 535.096C387.78 535.13 387.796 535.166 387.813 535.199C387.82 535.213 387.826 535.228 387.833 535.241C387.84 535.252 387.846 535.263 387.852 535.273C387.871 535.308 387.889 535.34 387.91 535.374C387.914 535.382 387.919 535.389 387.923 535.397C387.946 535.433 387.972 535.469 387.996 535.504C387.999 535.508 388.001 535.512 388.003 535.515C388.031 535.553 388.06 535.589 388.089 535.625C388.092 535.627 388.095 535.629 388.097 535.632C390.895 537.504 395.044 539.555 399.61 539.97C397.805 540.358 396.566 540.07 394.931 539.931C394.997 539.951 395.064 539.973 395.129 539.992C395.258 540.03 395.384 540.063 395.508 540.096C395.616 540.125 395.72 540.152 395.824 540.178C395.84 540.182 395.855 540.188 395.87 540.191C395.913 540.202 395.959 540.212 396.002 540.222C396.074 540.239 396.147 540.257 396.217 540.273C396.324 540.297 396.428 540.32 396.529 540.341C396.538 540.343 396.547 540.346 396.556 540.347C396.585 540.353 396.617 540.36 396.646 540.366C396.717 540.38 396.787 540.392 396.855 540.405C397.002 540.433 397.134 540.458 397.265 540.479C397.324 540.489 397.386 540.5 397.441 540.508C397.449 540.509 397.458 540.51 397.466 540.511C397.755 540.556 397.991 540.585 398.164 540.603C398.174 540.604 398.19 540.606 398.2 540.607C398.385 540.625 398.49 540.63 398.49 540.63C398.49 540.63 398.424 540.821 398.356 541.107C398.322 541.25 398.287 541.416 398.258 541.594C398.239 541.713 398.224 541.836 398.213 541.962C398.208 542.025 398.205 542.091 398.202 542.154C398.2 542.217 398.196 542.279 398.197 542.342C398.202 542.69 398.264 543.021 398.429 543.268C398.459 543.313 398.493 543.358 398.53 543.396C398.567 543.435 398.605 543.468 398.65 543.499C398.651 543.5 398.651 543.501 398.652 543.502C398.763 543.58 398.9 543.634 399.065 543.659C399.131 543.669 399.202 543.675 399.278 543.674C399.733 543.673 400.366 543.482 401.238 543.005C401.24 543.004 401.24 543.003 401.241 543.003C401.313 542.963 401.387 542.924 401.463 542.881C401.464 542.88 401.464 542.879 401.465 542.879C401.693 542.748 401.936 542.596 402.194 542.427C403.678 541.457 404.93 540.628 405.936 539.905C406.367 539.595 406.751 539.304 407.092 539.031C407.688 538.554 408.142 538.133 408.455 537.748C408.53 537.656 408.598 537.567 408.656 537.479C408.819 537.233 408.917 537.003 408.95 536.786C408.951 536.773 408.952 536.76 408.954 536.747C408.959 536.699 408.963 536.651 408.962 536.604C408.961 536.545 408.953 536.488 408.941 536.43C408.935 536.401 408.929 536.369 408.92 536.34C408.911 536.311 408.9 536.283 408.888 536.253C408.887 536.251 408.886 536.25 408.885 536.248C408.863 536.194 408.835 536.139 408.803 536.086C408.769 536.031 408.73 535.976 408.685 535.922C408.641 535.867 408.591 535.813 408.535 535.759C408.506 535.732 408.478 535.706 408.446 535.679C408.355 535.6 408.25 535.523 408.134 535.446C408.133 535.445 408.132 535.444 408.132 535.443C407.976 535.339 407.798 535.238 407.598 535.136C407.597 535.135 407.597 535.133 407.596 535.133C407.396 535.03 407.171 534.929 406.926 534.826C406.961 534.711 406.994 534.597 407.026 534.481C407.034 534.453 407.042 534.425 407.05 534.397C407.057 534.368 407.064 534.339 407.071 534.31C407.097 534.213 407.122 534.116 407.146 534.018C407.15 533.999 407.154 533.98 407.158 533.962C407.172 533.905 407.184 533.848 407.196 533.791C407.216 533.702 407.236 533.613 407.254 533.523C407.281 533.392 407.306 533.26 407.329 533.127C407.331 533.112 407.334 533.097 407.337 533.082C407.34 533.06 407.345 533.039 407.349 533.018C407.37 532.891 407.388 532.765 407.406 532.638C407.427 532.489 407.445 532.339 407.462 532.19C407.478 532.051 407.493 531.911 407.505 531.772C407.506 531.761 407.509 531.751 407.509 531.74C407.511 531.718 407.514 531.695 407.516 531.672C407.526 531.545 407.533 531.417 407.541 531.29C407.013 533.577 406.315 535.256 405.998 535.517C406.61 532.166 406.195 526.806 405.152 521.74C405.068 521.694 404.983 521.651 404.895 521.61C404.552 521.451 404.17 521.323 403.761 521.229C403.746 521.225 403.731 521.222 403.717 521.218C403.693 521.213 403.668 521.209 403.644 521.204C403.56 521.186 403.475 521.171 403.389 521.156C403.303 521.141 403.218 521.128 403.13 521.115C403.053 521.104 402.975 521.094 402.897 521.085C402.868 521.082 402.84 521.078 402.811 521.075C402.777 521.072 402.741 521.069 402.707 521.066C403.907 524.973 405.562 531.836 405.018 536.118C404.009 530.621 402.541 524.575 401.305 521.04C400.592 521.071 399.846 521.169 399.089 521.333C401.224 525.997 403.991 534.617 404.132 536.781C402.815 532.644 399.48 525.35 397.552 521.751C396.875 521.975 396.202 522.25 395.548 522.575C397.493 525.644 400.755 532.216 403.337 537.321C401.289 534.731 395.884 526.108 394.173 523.358C394.145 523.376 394.117 523.392 394.089 523.41C394.011 523.462 393.935 523.515 393.858 523.568L393.856 523.567Z" fill="#FFB380"/>
        <path d="M399.07 542.387C399.07 542.387 399.344 543.532 402.128 541.363C405.4 538.812 408.019 538.062 407.782 536.408C408.605 536.493 407.644 538.083 405.38 539.621C403.117 541.159 399.088 544.452 399.07 542.387L399.07 542.387Z" fill="#FFCCAA"/>
        <path d="M404.133 511.229C401.502 512.795 398.67 514.941 398.107 518.116C397.964 520.205 399.028 522.131 399.885 523.975C401.802 527.573 404.681 530.58 407.952 532.963C406.994 533.963 405.968 535.567 406.836 536.929C408.125 538.486 410.411 538.3 412.238 538.294C416.027 538.136 419.894 538.146 423.57 537.173C424.797 536.865 426.017 535.689 425.581 534.338C425.367 533.437 424.809 532.668 424.26 531.952C427.992 528.037 430.064 522.802 431.074 517.566C431.122 514.674 428.668 512.504 426.361 511.177C419.633 507.267 410.888 507.267 404.133 511.229L404.133 511.229Z" fill="black"/>
        <path d="M408.885 532.867C408.885 532.867 403.046 538.113 412.488 537.709C424.051 537.214 427.452 536.734 423.454 531.899C427.216 528.31 429.255 522.96 430.379 518.24C431.532 513.395 422.649 508.488 414.312 508.854C405.781 509.229 397.777 515.172 398.752 519.333C400.726 527.747 408.885 532.867 408.885 532.867L408.885 532.867Z" fill="#FFCCAA"/>
        <path d="M413.914 508.876C413.25 508.919 412.589 508.994 411.938 509.1C412.72 515.841 415.601 533.278 415.346 532.737C415.067 532.148 410.773 516.409 409.686 509.589C409.666 509.594 409.645 509.596 409.626 509.602C409.404 509.663 409.183 509.73 408.965 509.797C408.888 509.821 408.81 509.843 408.734 509.868C408.577 509.918 408.423 509.969 408.268 510.023C408.209 510.043 408.147 510.06 408.088 510.081C407.832 510.172 407.575 510.273 407.325 510.372C407.072 510.471 406.823 510.574 406.577 510.68C407.981 516.106 411.056 527.989 413.761 532.762C410.52 528.721 406.118 517.42 404.032 511.987C403.918 512.056 403.807 512.126 403.696 512.196C403.585 512.266 403.474 512.337 403.366 512.409C403.149 512.551 402.938 512.694 402.733 512.842C402.529 512.99 402.331 513.14 402.14 513.292C402.044 513.368 401.95 513.444 401.857 513.521C401.765 513.598 401.674 513.676 401.584 513.754C403.357 517.616 407.067 527.282 412.196 532.928C408.789 530.71 403.418 523.058 399.787 515.683C399.731 515.761 399.675 515.841 399.623 515.919C399.57 515.997 399.52 516.076 399.472 516.154C399.461 516.172 399.449 516.19 399.438 516.208C399.402 516.268 399.37 516.328 399.336 516.388C399.292 516.466 399.249 516.543 399.209 516.622C399.205 516.628 399.199 516.634 399.196 516.641C399.16 516.712 399.128 516.783 399.096 516.854C399.03 516.997 398.971 517.141 398.92 517.283C398.915 517.296 398.912 517.309 398.908 517.322C398.881 517.399 398.855 517.475 398.832 517.552C398.813 517.618 398.794 517.683 398.779 517.748C398.772 517.777 398.766 517.806 398.76 517.834C398.751 517.877 398.743 517.92 398.735 517.963C398.729 517.996 398.723 518.029 398.718 518.062C398.714 518.083 398.71 518.104 398.707 518.124C398.702 518.162 398.699 518.2 398.695 518.238C398.687 518.313 398.679 518.386 398.676 518.46C398.673 518.513 398.671 518.568 398.671 518.62C398.671 518.642 398.67 518.665 398.671 518.686C398.672 518.703 398.673 518.721 398.674 518.738C398.676 518.794 398.679 518.846 398.684 518.902C398.685 518.914 398.685 518.927 398.686 518.939C398.692 519 398.702 519.061 398.711 519.121C398.712 519.127 398.712 519.134 398.712 519.14C398.723 519.206 398.737 519.27 398.752 519.335C398.755 519.339 398.757 519.344 398.758 519.349C401.147 523.626 405.153 529.092 410.749 532.875C408.182 532.048 406.776 530.81 404.766 529.465C404.839 529.537 404.91 529.613 404.982 529.683C405.122 529.82 405.264 529.952 405.401 530.081C405.521 530.193 405.638 530.301 405.755 530.407C405.772 530.423 405.788 530.441 405.805 530.456C405.854 530.5 405.906 530.545 405.954 530.588C406.035 530.661 406.118 530.734 406.197 530.804C406.319 530.91 406.438 531.013 406.555 531.112C406.565 531.12 406.575 531.13 406.585 531.138C406.619 531.167 406.655 531.198 406.689 531.226C406.77 531.294 406.853 531.359 406.931 531.423C407.103 531.563 407.256 531.687 407.411 531.808C407.48 531.861 407.553 531.919 407.618 531.969C407.627 531.976 407.639 531.984 407.648 531.991C407.991 532.252 408.275 532.458 408.484 532.603C408.497 532.612 408.517 532.625 408.529 532.634C408.754 532.789 408.886 532.871 408.886 532.871C408.886 532.871 408.679 533.054 408.407 533.351C408.272 533.5 408.12 533.676 407.969 533.872C407.868 534.002 407.769 534.14 407.674 534.285C407.626 534.357 407.581 534.434 407.537 534.509C407.493 534.584 407.449 534.656 407.409 534.733C407.192 535.158 407.058 535.604 407.111 536.022C407.121 536.097 407.135 536.176 407.158 536.249C407.18 536.322 407.209 536.39 407.246 536.46C407.246 536.461 407.246 536.464 407.246 536.465C407.339 536.639 407.48 536.803 407.675 536.952C407.754 537.011 407.842 537.069 407.94 537.124C408.525 537.45 409.46 537.673 410.888 537.721C410.889 537.721 410.891 537.721 410.892 537.721C411.01 537.725 411.131 537.73 411.255 537.732C411.257 537.732 411.258 537.732 411.26 537.732C411.636 537.736 412.045 537.728 412.486 537.709C415.016 537.601 417.157 537.496 418.913 537.343C419.666 537.278 420.347 537.201 420.959 537.116C422.032 536.966 422.886 536.783 423.535 536.541C423.691 536.483 423.835 536.424 423.966 536.36C424.334 536.18 424.608 535.971 424.789 535.731C424.8 535.717 424.809 535.702 424.819 535.687C424.857 535.633 424.894 535.578 424.922 535.521C424.959 535.447 424.985 535.374 425.007 535.295C425.018 535.255 425.03 535.212 425.037 535.171C425.045 535.128 425.05 535.087 425.053 535.043C425.053 535.04 425.053 535.036 425.053 535.033C425.059 534.952 425.059 534.866 425.051 534.779C425.044 534.688 425.029 534.593 425.006 534.495C424.983 534.397 424.954 534.295 424.917 534.19C424.898 534.137 424.878 534.085 424.855 534.029C424.789 533.868 424.703 533.7 424.604 533.522C424.603 533.521 424.603 533.519 424.603 533.518C424.47 533.28 424.306 533.03 424.115 532.762C424.115 532.761 424.115 532.758 424.115 532.757C423.924 532.489 423.701 532.205 423.452 531.904C423.571 531.79 423.687 531.675 423.803 531.558C423.831 531.529 423.859 531.501 423.887 531.473C423.915 531.443 423.942 531.412 423.971 531.383C424.066 531.284 424.161 531.185 424.254 531.084C424.272 531.064 424.289 531.044 424.306 531.024C424.36 530.965 424.412 530.905 424.465 530.845C424.548 530.751 424.63 530.657 424.711 530.562C424.83 530.422 424.947 530.28 425.062 530.136C425.075 530.12 425.088 530.103 425.101 530.087C425.12 530.063 425.14 530.041 425.158 530.017C425.266 529.879 425.371 529.739 425.476 529.598C425.599 529.433 425.718 529.266 425.836 529.097C425.946 528.94 426.055 528.781 426.16 528.621C426.168 528.609 426.178 528.598 426.186 528.586C426.203 528.56 426.221 528.534 426.238 528.508C426.333 528.361 426.424 528.212 426.517 528.063C424.367 530.454 422.39 531.986 421.816 532.073C424.758 528.455 427.673 521.666 429.593 514.781C429.515 514.666 429.434 514.552 429.346 514.438C429.008 514 428.601 513.57 428.135 513.162C428.119 513.147 428.103 513.132 428.086 513.118C428.059 513.094 428.029 513.071 428.001 513.048C427.906 512.966 427.805 512.887 427.705 512.807C427.605 512.727 427.503 512.649 427.399 512.571C427.307 512.503 427.213 512.434 427.118 512.367C427.084 512.343 427.05 512.318 427.015 512.294C426.973 512.265 426.93 512.236 426.887 512.207C425.915 517.803 423.624 527.302 420.172 532.097C422.412 524.714 424.417 516.338 425.104 511.168C424.168 510.694 423.147 510.276 422.07 509.931C421.811 517.114 419.818 529.541 418.606 532.263C419.577 526.307 419.987 515.076 419.828 509.333C418.815 509.118 417.774 508.966 416.725 508.891C417.247 514.005 417.208 524.308 417.238 532.346C416.276 527.738 414.883 513.411 414.455 508.85C414.408 508.852 414.361 508.852 414.314 508.854C414.181 508.86 414.049 508.87 413.916 508.878L413.914 508.876Z" fill="#FFB380"/>
        <path d="M408.5 535.415C408.5 535.415 408.116 536.998 413.086 536.372C418.928 535.635 422.773 536.608 423.533 534.435C424.535 535.129 422.278 536.364 418.382 536.6C414.486 536.836 407.195 537.929 408.501 535.415L408.5 535.415Z" fill="#FFCCAA"/>
        <path d="M303.869 282.008C309.59 282.295 325.079 319.712 318.526 336.635C311.76 354.102 290.326 361.752 297.638 388.367C304.95 414.981 314.358 427.675 292.896 457.025C282.003 471.921 284.251 488.925 289.106 502.059C283.943 480.925 297.036 468.428 305.547 447.576C315.973 422.03 308.972 411.389 304.334 393.233C299.696 375.078 320.984 338.057 325.9 340.906C330.816 343.756 308.923 372.392 315.623 395.837C321.933 417.922 324.095 424.435 312.959 451.215C302.945 475.297 290.655 485.823 298.443 511.057C297.828 504.105 298.493 495.986 302.885 489.24C312.784 474.037 330.592 462.014 332.176 435.477C333.761 408.939 339.512 387.846 348.256 391.981C357 396.119 348.314 398.534 343.584 409.986C338.854 421.438 338.216 450.966 332.304 459.635C326.391 468.307 307.105 486.331 304.328 495.193C301.991 502.649 300.504 506.678 301.302 518.857C301.479 519.279 301.66 519.696 301.847 520.126C303.021 522.824 303.952 525.448 304.668 528C301.031 526.708 296.898 525.296 292.406 523.825C290.937 521.248 289.16 518.28 287.358 514.909C288.258 517.631 288.918 520.27 289.359 522.832C287.556 522.255 285.713 521.683 283.838 521.11C283.638 519.749 283.366 518.381 283.014 517.011C278.295 511.307 265.829 495.842 256.815 481.027C245.525 462.473 259.943 449.934 265.346 433.979C270.749 418.026 259.652 412.253 253.228 408.036C246.804 403.819 244.339 391.859 257.466 400.948C270.593 410.038 271.159 421.877 272.736 427.399C274.314 432.92 261.166 456.069 261.262 470.437C261.321 479.399 269.549 492.453 275.73 501.009C261.848 473.942 265.848 462.529 275.557 438.741C285.984 413.195 265.603 403.029 260.965 384.873C256.327 366.719 277.614 329.698 282.531 332.546C287.447 335.396 260.166 366.31 272.254 387.467C284.343 408.623 294.105 415.6 282.969 442.38C273.353 465.505 271.68 474.835 280.4 497.632C277.597 486.471 277.846 473.235 286.451 458.544C304.15 428.328 297.717 419.008 289.847 391.085C281.978 363.16 292.49 357.403 307.01 337.849C321.529 318.295 298.122 284.331 303.342 282.09C303.505 282.02 303.686 281.992 303.87 282.002L303.869 282.008Z" fill="#00D400"/>
        <path d="M326.573 334C326.73 334.001 326.884 334.042 327.019 334.109C331.333 336.277 309.766 363.908 321.089 381.248C332.413 398.588 341.038 404.004 332.949 427.303C324.861 450.603 318.936 458.19 332.416 484.743C338.97 497.652 338.503 508.895 335.561 518.225C344.11 499.32 343.165 491.316 336.181 471.194C328.093 447.894 336.728 442.478 348.052 425.14C359.375 407.8 337.797 380.156 342.111 377.99C346.425 375.823 362.611 408.338 357.758 423.509C352.905 438.681 335.106 446.266 342.655 468.482C349.685 489.171 352.491 499.064 339.347 521.328C345.023 514.382 352.662 503.717 353.166 496.114C353.975 483.922 343.998 463.608 345.615 459.003C347.232 454.397 348.319 444.375 359.912 437.33C371.505 430.286 368.806 440.312 363.144 443.563C357.482 446.814 347.781 451.144 351.556 464.962C355.33 478.779 366.923 490.16 356.409 505.334C348.014 517.447 336.653 529.939 332.362 534.54C332.099 535.358 331.872 536.181 331.677 537L327.683 535.611C328.011 534.597 328.38 533.566 328.793 532.528C328.183 533.522 327.575 534.463 326.987 535.371L317.107 531.915C317.8 524.05 316.821 520.649 315.399 514.934C313.493 507.271 298.049 490.986 293.474 483.323C288.899 475.66 289.844 450.563 286.412 440.603C282.981 430.641 275.74 428.141 283.366 425.076C290.991 422.01 294.802 440.215 294.802 462.823C294.802 485.43 309.297 496.54 316.922 509.952C320.305 515.901 320.45 522.835 319.577 528.705C327.459 507.685 317.58 498.122 310.307 477.171C302.219 453.871 304.38 448.444 310.851 430.021C317.719 410.464 300.596 385.038 304.91 382.872C309.224 380.704 325.409 413.22 320.556 428.391C315.704 443.563 309.221 452.242 316.77 474.459C322.931 492.593 333.404 503.868 327.955 521.542C332.738 510.642 335.503 496.319 327.02 483.119C310.304 457.11 318.927 446.813 326.476 424.598C334.025 402.381 316.237 394.796 311.384 379.625C306.683 364.926 321.708 333.955 326.573 334.008L326.573 334Z" fill="#00AA00"/>
        <path d="M250.515 321C250.668 321.001 250.819 321.041 250.951 321.107C255.166 323.221 234.089 350.171 245.155 367.084C256.221 383.996 264.65 389.279 256.746 412.007C248.842 434.732 243.051 442.133 256.225 468.031C262.629 480.622 262.174 491.588 259.298 500.687C267.653 482.248 266.729 474.442 259.904 454.816C252 432.09 260.439 426.808 271.505 409.897C282.571 392.985 261.484 366.022 265.699 363.909C269.915 361.795 285.733 393.51 280.991 408.306C276.248 423.105 258.854 430.503 266.231 452.171C273.101 472.35 275.844 481.999 262.999 503.715C268.545 496.94 276.01 486.538 276.504 479.121C277.294 467.23 267.543 447.417 269.124 442.925C270.704 438.433 271.767 428.658 283.096 421.787C294.425 414.916 291.787 424.695 286.254 427.866C280.721 431.037 271.241 435.26 274.93 448.737C278.618 462.214 289.948 473.314 279.672 488.114C271.468 499.929 260.365 512.113 256.172 516.6C255.915 517.399 255.694 518.201 255.502 519L251.6 517.646C251.92 516.656 252.28 515.651 252.684 514.638C252.088 515.608 251.494 516.526 250.919 517.411L241.264 514.041C241.941 506.369 240.984 503.052 239.594 497.478C237.731 490.004 222.639 474.12 218.168 466.646C213.696 459.171 214.62 434.694 211.267 424.979C207.913 415.262 200.837 412.824 208.289 409.834C215.742 406.845 219.465 424.601 219.465 446.652C219.465 468.701 233.631 479.538 241.083 492.619C244.389 498.421 244.531 505.185 243.678 510.909C251.381 490.407 241.726 481.081 234.618 460.645C226.714 437.92 228.826 432.627 235.15 414.658C241.862 395.582 225.128 370.783 229.344 368.671C233.559 366.556 249.377 398.271 244.635 413.068C239.892 427.866 233.557 436.331 240.934 458.001C246.956 475.687 257.19 486.684 251.866 503.923C256.539 493.292 259.242 479.321 250.951 466.447C234.616 441.079 243.042 431.036 250.419 409.368C257.797 387.699 240.413 380.301 235.671 365.503C231.076 351.168 245.76 320.96 250.515 321.011L250.515 321Z" fill="#00AA00"/>
        <path d="M1209.13 329C1208.99 329.001 1208.85 329.038 1208.72 329.101C1204.75 331.097 1224.6 356.55 1214.18 372.524C1203.76 388.496 1195.82 393.486 1203.26 414.951C1210.71 436.414 1216.16 443.403 1203.75 467.863C1197.72 479.754 1198.15 490.111 1200.86 498.705C1192.99 481.29 1193.86 473.917 1200.29 455.382C1207.73 433.919 1199.78 428.929 1189.36 412.958C1178.94 396.986 1198.8 371.521 1194.83 369.525C1190.86 367.529 1175.96 397.481 1180.43 411.456C1184.89 425.432 1201.28 432.419 1194.33 452.884C1187.86 471.941 1185.28 481.054 1197.37 501.564C1192.15 495.165 1185.12 485.341 1184.65 478.337C1183.91 467.106 1193.09 448.394 1191.6 444.152C1190.12 439.909 1189.12 430.677 1178.44 424.188C1167.77 417.699 1170.26 426.934 1175.47 429.929C1180.68 432.924 1189.61 436.913 1186.14 449.641C1182.66 462.369 1171.99 472.852 1181.67 486.83C1189.4 497.988 1199.85 509.495 1203.8 513.734C1204.05 514.488 1204.25 515.245 1204.43 516L1208.11 514.721C1207.81 513.786 1207.47 512.837 1207.09 511.88C1207.65 512.796 1208.21 513.663 1208.75 514.499L1217.84 511.316C1217.21 504.071 1218.11 500.938 1219.42 495.674C1221.17 488.615 1235.39 473.613 1239.6 466.554C1243.81 459.495 1242.94 436.378 1246.1 427.202C1249.26 418.025 1255.92 415.723 1248.9 412.899C1241.88 410.075 1238.38 426.845 1238.38 447.671C1238.38 468.495 1225.03 478.73 1218.01 491.084C1214.9 496.565 1214.77 502.952 1215.57 508.359C1208.32 488.996 1217.41 480.187 1224.1 460.887C1231.55 439.424 1229.56 434.426 1223.6 417.455C1217.28 399.439 1233.04 376.017 1229.07 374.022C1225.1 372.025 1210.2 401.978 1214.67 415.953C1219.14 429.929 1225.1 437.923 1218.15 458.389C1212.48 475.093 1202.84 485.48 1207.86 501.761C1203.46 491.72 1200.91 478.526 1208.72 466.367C1224.11 442.408 1216.17 432.923 1209.22 412.459C1202.27 391.994 1218.65 385.007 1223.11 371.031C1227.44 357.492 1213.61 328.962 1209.13 329.007L1209.13 329Z" fill="#00AA00"/>
        <path d="M1150.13 353C1149.99 353.001 1149.85 353.038 1149.72 353.1C1145.75 355.075 1165.6 380.256 1155.18 396.059C1144.76 411.861 1136.82 416.797 1144.26 438.03C1151.71 459.264 1157.16 466.178 1144.75 490.377C1138.72 502.141 1139.15 512.387 1141.86 520.89C1133.99 503.661 1134.86 496.367 1141.29 478.029C1148.73 456.795 1140.78 451.859 1130.36 436.058C1119.94 420.256 1139.8 395.063 1135.83 393.09C1131.86 391.114 1116.96 420.747 1121.43 434.572C1125.89 448.399 1142.28 455.312 1135.33 475.558C1128.86 494.412 1126.28 503.427 1138.37 523.718C1133.15 517.388 1126.12 507.669 1125.65 500.739C1124.91 489.628 1134.09 471.116 1132.6 466.919C1131.12 462.721 1130.12 453.588 1119.44 447.168C1108.77 440.748 1111.26 449.885 1116.47 452.848C1121.68 455.811 1130.61 459.757 1127.14 472.349C1123.66 484.942 1112.99 495.313 1122.67 509.141C1130.4 520.181 1140.85 531.565 1144.8 535.758C1145.05 536.504 1145.25 537.253 1145.43 538L1149.11 536.734C1148.81 535.81 1148.47 534.871 1148.09 533.924C1148.65 534.831 1149.21 535.688 1149.75 536.515L1158.84 533.366C1158.21 526.198 1159.11 523.099 1160.42 517.891C1162.17 510.907 1176.39 496.066 1180.6 489.082C1184.81 482.099 1183.94 459.228 1187.1 450.15C1190.26 441.071 1196.92 438.793 1189.9 436C1182.88 433.207 1179.38 449.797 1179.38 470.401C1179.38 491.002 1166.03 501.128 1159.01 513.35C1155.9 518.772 1155.77 525.091 1156.57 530.44C1149.32 511.284 1158.41 502.57 1165.1 483.476C1172.55 462.242 1170.56 457.297 1164.6 440.507C1158.28 422.684 1174.04 399.512 1170.07 397.538C1166.1 395.563 1151.2 425.195 1155.67 439.021C1160.14 452.848 1166.1 460.757 1159.16 481.005C1153.48 497.53 1143.84 507.806 1148.86 523.913C1144.46 513.979 1141.91 500.926 1149.72 488.897C1165.11 465.194 1157.17 455.81 1150.22 435.564C1143.27 415.318 1159.65 408.406 1164.11 394.579C1168.44 381.184 1154.61 352.959 1150.13 353.007L1150.13 353Z" fill="#00AA00"/>
        <path d="M1168.81 317C1163.5 316.947 1147.11 350.325 1152.23 366.167C1157.53 382.52 1176.94 390.698 1168.7 414.643C1160.47 438.588 1151.06 449.681 1169.3 477.717C1178.55 491.944 1175.53 507.377 1170.31 519.125C1176.26 500.074 1164.84 487.921 1158.11 468.375C1149.88 444.43 1156.94 435.079 1162.24 418.727C1167.53 402.375 1149.88 367.333 1145.18 369.672C1140.47 372.008 1159.14 399.411 1151.65 420.489C1144.59 440.346 1142.23 446.185 1151.05 471.297C1158.99 493.879 1169.78 504.186 1161.18 526.843C1162.13 520.517 1161.97 513.052 1158.27 506.639C1149.96 492.186 1134.14 480.206 1134.14 455.841C1134.14 431.477 1129.99 411.861 1121.67 415.164C1113.35 418.468 1121.25 421.156 1125 431.893C1128.74 442.631 1127.7 469.678 1132.69 477.937C1137.68 486.197 1154.53 503.747 1156.61 512.005C1158.36 518.955 1159.51 522.723 1158.1 533.821C1157.92 534.197 1157.73 534.568 1157.53 534.952C1156.29 537.356 1155.29 539.705 1154.48 542C1157.92 541.019 1161.82 539.954 1166.06 538.856C1167.56 536.579 1169.37 533.962 1171.22 530.977C1170.24 533.417 1169.48 535.796 1168.93 538.115C1170.63 537.687 1172.37 537.265 1174.14 536.844C1174.4 535.61 1174.72 534.373 1175.13 533.14C1179.81 528.181 1192.19 514.719 1201.35 501.663C1212.82 485.311 1200.18 473.046 1196.06 458.154C1191.94 443.261 1202.53 438.591 1208.7 435.087C1214.88 431.583 1217.82 420.777 1205.17 428.369C1192.53 435.962 1191.35 446.762 1189.59 451.726C1187.82 456.69 1198.71 478.592 1197.82 491.734C1197.27 499.93 1188.94 511.419 1182.75 518.905C1197.09 494.908 1194.02 484.248 1186.35 461.95C1178.11 438.005 1197.53 429.826 1202.82 413.475C1208.12 397.122 1190.47 362.081 1185.76 364.42C1181.06 366.756 1204.59 396.54 1192.24 415.227C1179.88 433.916 1170.47 439.761 1179.29 464.875C1186.91 486.56 1187.94 495.188 1178.61 515.564C1181.82 505.508 1182.33 493.386 1175.18 479.471C1160.47 450.854 1166.94 442.683 1175.76 417.569C1184.58 392.456 1175.18 386.61 1162.82 367.921C1150.47 349.232 1174 319.449 1169.3 317.114C1169.15 317.041 1168.98 317.005 1168.81 317.004V317Z" fill="#00D400"/>
        <path d="M918.033 418.731C914.67 417.87 912.852 422.183 912.852 422.183C917.67 422.602 919.567 427.578 919.567 427.578C919.567 427.578 923.511 421.594 919.126 419.172C918.746 418.962 918.381 418.82 918.033 418.731Z" fill="black"/>
        <path d="M886.957 413.41C886.141 413.223 885.255 413.27 884.468 413.446C883.035 413.767 880.09 415.449 881.921 421.466C885.598 415.608 889.477 419.213 889.477 419.213C890.201 415.369 888.752 413.821 886.957 413.41Z" fill="black"/>
        <path d="M909.21 435.517C904.849 434.404 900.438 436.034 897.813 439.32C896.723 439.192 895.562 439.153 894.482 439.32C893.437 438.067 892 437.118 890.295 436.683C886.006 435.588 881.645 438.161 880.557 442.427C879.681 445.858 881.192 449.34 884.048 451.141C882.499 460.085 880.308 469.494 874.746 476.716C874.405 477.153 874.051 477.583 873.683 478.001C871.296 476.365 868.47 475.224 865.67 474.459C865.78 473.184 865.792 471.962 865.397 470.752C868.884 468.986 871.262 465.339 871.387 461.337C871.541 459.062 871.104 456.777 870.207 454.687C868.978 457.082 866.562 458.571 864.235 459.661C863.07 458.122 863.495 456.052 863.804 454.301C864.317 451.968 865.445 449.849 866.812 447.908C866.51 448.062 866.209 448.216 865.907 448.37C862.086 450.311 858.122 452.799 856.304 456.867C854.677 460.309 855.657 464.4 857.706 467.404C858.258 468.301 858.748 469.101 859.401 469.91C859.054 473.081 860.142 476.679 862.85 478.605C865.021 480.07 867.596 481.565 870.177 482.125C870.211 482.444 870.244 482.763 870.278 483.083C866.893 482.564 863.446 482.525 860.024 482.611C857.367 484.85 855.434 487.774 853.518 490.646C854.216 494.058 856.057 497.101 857.511 500.228C857.608 500.46 857.901 501.105 858.152 501.298C858.188 501.004 858.209 500.026 858.168 499.528C858.044 496.663 858.326 493.728 857.686 490.898C859.226 489.287 860.993 487.83 862.07 485.848C863.238 486.125 864.421 486.291 865.612 486.393C863.931 488.491 862.753 490.942 861.581 493.358C862.588 496.222 864.538 498.631 866.165 501.159C866.277 501.347 866.607 501.867 866.847 502.004C866.843 501.746 866.746 500.901 866.652 500.475C866.204 498.015 866.097 495.446 865.209 493.079C866.347 491.504 867.701 490.037 868.396 488.198C869.288 488.284 870.18 488.3 871.071 488.269C871.018 488.283 870.964 488.296 870.911 488.31C869.462 490.27 868.619 492.579 867.779 494.85C868.81 497.065 870.56 498.842 872.06 500.74C872.164 500.882 872.471 501.275 872.674 501.366C872.65 501.16 872.506 500.492 872.397 500.159C871.846 498.223 871.562 496.174 870.665 494.347C871.454 492.997 872.421 491.713 872.834 490.186C873.921 490.184 874.997 490.055 876.063 489.864C884.177 494.737 893.092 498.38 902.539 499.456C905.551 499.784 908.609 499.882 911.607 499.419C912.873 500.03 914.296 500.584 915.749 500.998C915.782 502.499 916.268 503.96 916.589 505.427C915.065 506.952 914.093 508.914 912.887 510.668C912.665 510.966 912.292 511.589 912.2 511.788C912.437 511.767 912.879 511.479 913.033 511.372C913.966 510.775 914.938 510.213 915.886 509.621C914.777 511.335 913.889 513.201 912.84 514.94C912.565 515.358 912.112 516.225 912.002 516.5C912.315 516.45 912.885 516.026 913.082 515.869C914.844 514.569 916.725 513.372 918.44 511.992C918.418 512.053 918.396 512.114 918.372 512.175C918.199 512.577 917.945 513.394 917.894 513.648C918.16 513.558 918.59 513.104 918.737 512.939C920.835 510.757 923.237 508.755 924.773 506.122C923.947 503.2 923.118 500.23 921.488 497.623C918.817 496.659 916.407 495.828 913.402 495.235C913.503 494.652 913.601 494.073 913.702 493.49C916.883 494.846 920.76 494.889 923.798 493.109C925.824 491.633 927.415 489.708 928.541 487.492C932.352 486.296 936.495 483.642 937.684 479.656C938.803 475.834 936.881 471.705 934.978 468.402C934.268 467.143 933.313 465.557 932.501 464.354C932.519 464.67 932.652 465.389 932.669 465.705C933.005 469.609 931.762 473.674 929.216 476.657C928.9 476.947 928.434 477.471 928.028 477.409C926.289 474.94 925.889 471.428 926.985 468.563C922.962 471.149 920.127 476.394 921.162 481.193C921.43 482.583 921.666 483.754 922.334 484.994C921.226 486.015 920.658 487.526 920.097 488.868C918.438 488.13 916.567 487.596 914.705 487.45C915.049 485.238 915.361 483.025 915.612 480.815C916.132 472.145 915.437 464.158 912.34 455.544C914.681 454.1 916.484 451.79 917.215 448.923C918.719 443.032 915.135 437.029 909.21 435.517L909.21 435.517Z" fill="black"/>
        <path d="M920.566 503.952C920.776 504.353 920.982 504.755 921.177 505.159C921.053 505.363 920.935 505.569 920.823 505.778C920.749 505.167 920.667 504.558 920.566 503.952Z" fill="#FF0000"/>
        <path d="M916.86 505.73C915.265 507.358 914.484 509.114 913.274 510.8C914.307 510.084 915.412 509.463 916.467 508.776C916.76 508.369 917.071 507.976 917.405 507.597C917.237 506.974 917.046 506.352 916.86 505.73Z" fill="#FFAAAA"/>
        <path d="M920.069 498.526C920.069 498.526 920.834 501.638 922.041 503.307C921.033 500.878 920.069 498.526 920.069 498.526Z" fill="#FFD5D5"/>
        <path d="M915.2 496.134C914.574 495.977 913.947 495.837 913.319 495.714C913.294 495.859 913.272 496.004 913.247 496.149C915.411 496.951 917.229 497.997 919.319 499.208C919.71 500.212 920.005 501.241 920.239 502.285C920.704 503.261 921.25 504.209 921.709 505.187C921.404 505.673 921.148 506.156 920.92 506.636C921.018 507.55 921.097 508.465 921.178 509.378C920.563 510.106 919.885 510.766 919.169 511.387C919.068 511.666 918.962 511.944 918.848 512.224C920.672 510.182 922.867 508.448 924.265 506.057C923.488 503.372 922.784 500.682 921.171 498C919.187 497.29 917.199 496.635 915.2 496.134L915.2 496.134Z" fill="#FFAAAA"/>
        <path d="M870.938 486.558C869.354 486.555 867.763 486.549 866.184 486.44C864.349 488.66 863.25 491.03 862.091 493.385C863.009 495.986 864.811 498.095 866.199 500.435C865.699 497.961 865.721 495.635 864.703 493.013C865.915 491.292 867.422 489.744 868.093 487.705C869.698 487.876 871.193 487.835 872.645 487.708C872.072 487.33 871.502 486.947 870.938 486.558Z" fill="#FFAAAA"/>
        <path d="M873.262 488.112C873.259 488.112 873.256 488.113 873.253 488.114C872.55 488.274 871.846 488.446 871.142 488.631C869.702 490.652 868.973 492.745 868.187 494.832C869.126 496.843 870.732 498.389 872.027 500.155C871.433 498.212 871.268 496.349 870.248 494.328C871.084 492.854 872.173 491.497 872.551 489.811C873.619 489.82 874.618 489.722 875.58 489.567C874.801 489.092 874.027 488.607 873.263 488.112L873.262 488.112Z" fill="#FF8080"/>
        <path d="M870.348 483.634C867.069 483.111 863.668 483.063 860.236 483.139C857.571 485.466 855.868 488.128 854.089 490.761C854.725 493.861 856.444 496.538 857.656 499.414C857.475 496.523 857.862 493.883 857.116 490.743C858.762 488.977 860.717 487.456 861.798 485.244C864.913 486.015 867.757 486.018 870.605 486.029C870.521 485.231 870.435 484.432 870.348 483.634Z" fill="#FFAAAA"/>
        <path d="M865.307 449.295C847.987 458.24 860.213 469.622 860.213 469.622C860.213 469.622 859.313 474.597 862.627 477.801C865.648 479.968 868.402 480.839 870.123 481.193C871.191 480.487 872.16 479.639 873.049 478.708C870.575 476.949 867.96 475.572 865.092 474.86C865.092 474.86 865.508 472.976 864.486 470.435C873.994 465.688 870.117 455.909 870.117 455.909C870.117 455.909 868.797 458.169 864.163 460.327C862.119 458.878 862.801 453.296 865.307 449.295L865.307 449.295Z" fill="#FFAAAA"/>
        <path d="M897.076 440.366C896.351 440.277 895.732 440.279 895.211 440.339C895.598 440.985 895.894 441.685 896.087 442.418C896.35 441.69 896.683 441.005 897.08 440.367C897.079 440.367 897.078 440.366 897.076 440.367L897.076 440.366ZM895.561 447.876C893.949 451.234 890.127 453.098 886.36 452.136C885.952 452.032 885.563 451.899 885.188 451.739C881.057 475.296 870.642 481.478 870.642 481.478L871.144 486.06C891.139 499.931 906.221 499.551 910.805 499.013C909.761 498.461 908.859 497.884 908.186 497.348C908.02 495.55 909.277 495.339 909.827 495.172C910.891 495.393 911.85 495.66 912.745 495.968C912.873 495.199 913.024 494.269 913.198 493.186C912.351 492.544 911.716 491.682 911.335 490.923C911.513 491.199 911.741 491.45 912.021 491.667C912.026 491.686 912.503 492.032 913.32 492.443C913.32 492.441 913.321 492.44 913.32 492.438C915.253 493.411 919.096 494.749 923.133 492.934C926.542 490.636 927.989 486.923 927.989 486.923C927.989 486.923 944.169 482.792 933.255 466.64C933.538 471.353 930.344 477.789 927.855 478.082C924.822 473.967 925.868 470.141 925.868 470.141C925.868 470.141 918.03 476.123 923.307 485.266C920.897 487.43 920.461 489.618 920.461 489.618C918.64 488.786 916.703 488.206 914.47 488.286C914.421 488.288 914.371 488.293 914.322 488.295C914.214 488.3 914.106 488.306 913.997 488.315C913.983 488.316 913.971 488.316 913.957 488.318C912.986 488.395 911.961 488.594 910.863 488.951C911.754 488.126 913.441 487.703 914.068 487.568C914.327 485.848 914.607 483.987 914.918 481.825C915.61 471.419 914.483 463.115 911.588 455.98C909.265 457.172 906.507 457.556 903.771 456.858C899.346 455.729 896.23 452.096 895.56 447.875L895.561 447.876Z" fill="#FFAAAA"/>
        <path d="M895.533 446.439C894.512 450.438 890.443 452.852 886.445 451.831C882.446 450.811 880.032 446.742 881.052 442.743C882.073 438.744 886.142 436.33 890.141 437.351C894.139 438.371 896.553 442.44 895.533 446.439Z" fill="#FFD5D5"/>
        <path d="M893.007 444.698C892.234 447.726 889.152 449.555 886.123 448.782C883.094 448.009 881.266 444.927 882.039 441.898C882.812 438.869 885.894 437.04 888.923 437.814C891.952 438.587 893.78 441.669 893.007 444.698Z" fill="white"/>
        <path d="M888.633 443.057C888.381 444.044 887.376 444.64 886.389 444.388C885.403 444.136 884.807 443.132 885.059 442.145C885.31 441.158 886.315 440.562 887.302 440.814C888.289 441.066 888.884 442.07 888.633 443.057Z" fill="black"/>
        <path d="M887.18 441.919C887.063 442.377 886.597 442.653 886.14 442.536C885.682 442.419 885.406 441.954 885.523 441.496C885.64 441.039 886.105 440.763 886.563 440.879C887.02 440.996 887.297 441.462 887.18 441.919Z" fill="white"/>
        <path d="M896.464 443.877C895.054 449.399 898.389 455.019 903.912 456.429C909.435 457.839 915.055 454.504 916.464 448.981C917.874 443.458 914.539 437.838 909.016 436.429C903.493 435.019 897.874 438.354 896.464 443.877Z" fill="#FFD5D5"/>
        <path d="M897.724 442.761C896.673 446.878 899.211 451.081 903.392 452.148C907.574 453.215 911.815 450.743 912.866 446.626C913.917 442.509 911.379 438.307 907.197 437.239C903.016 436.172 898.774 438.644 897.724 442.761Z" fill="white"/>
        <path d="M897.822 473.708C897.761 473.715 897.704 473.739 897.656 473.776C897.608 473.814 897.572 473.864 897.55 473.921C897.529 473.977 897.524 474.039 897.535 474.099C897.546 474.158 897.574 474.214 897.614 474.259C897.614 474.259 898.268 475.018 898.944 476.115C899.147 476.443 899.349 476.804 899.536 477.179C891.081 482.362 880.988 480.808 880.988 480.808C880.944 480.8 880.899 480.801 880.856 480.81C880.813 480.82 880.772 480.838 880.736 480.863C880.7 480.889 880.67 480.921 880.647 480.959C880.623 480.996 880.608 481.038 880.601 481.082C880.594 481.126 880.596 481.17 880.606 481.213C880.617 481.256 880.636 481.296 880.662 481.332C880.689 481.367 880.722 481.397 880.76 481.419C880.798 481.442 880.84 481.456 880.884 481.462C880.884 481.462 891.13 483.077 899.823 477.788C900.121 478.489 900.338 479.221 900.378 479.905C900.375 479.951 900.383 479.997 900.4 480.041C900.417 480.084 900.442 480.123 900.475 480.156C900.508 480.189 900.548 480.214 900.591 480.231C900.635 480.247 900.681 480.254 900.728 480.252C900.774 480.249 900.819 480.237 900.861 480.215C900.902 480.194 900.938 480.164 900.967 480.128C900.997 480.092 901.018 480.05 901.03 480.005C901.041 479.96 901.044 479.913 901.036 479.867C900.952 478.401 900.213 476.905 899.508 475.763C898.803 474.62 898.116 473.828 898.116 473.828C898.081 473.784 898.035 473.75 897.983 473.729C897.932 473.708 897.877 473.701 897.822 473.708L897.822 473.708Z" fill="black"/>
        <path d="M924.963 473.056C924.963 473.056 924.262 476.492 926.809 478.95C925.41 479.078 924.068 475.87 924.963 473.056Z" fill="#FF0000"/>
        <path d="M933.802 469.298C933.802 469.298 932.961 479.432 926.927 478.89C928.931 479.588 933.272 478.701 933.802 469.298Z" fill="#FF0000"/>
        <path d="M863.821 450.822C863.821 450.822 857.585 458.644 862.273 461.774C861.143 462.046 856.476 459.203 863.821 450.822Z" fill="#FF0000"/>
        <path d="M909.785 495.153C912.913 496.266 915.921 497.854 918.897 499.565C920.121 502.885 920.34 506.037 920.64 509.201C918.596 511.616 915.805 513.142 913.363 515.086C914.907 512.636 915.832 510.132 917.992 507.734C917.394 505.395 916.406 503.123 916.518 500.664C913.414 499.848 910.916 498.488 908.412 497.133C908.257 496.135 908.549 495.385 909.785 495.153Z" fill="#FFAAAA"/>
        <path d="M909.785 495.153C912.913 496.266 915.921 497.854 918.897 499.565C920.121 502.885 920.34 506.037 920.64 509.201C918.596 511.616 915.805 513.142 913.363 515.086C914.907 512.636 915.832 510.132 917.992 507.734C917.394 505.395 916.406 503.123 916.518 500.664C913.414 499.848 910.916 498.488 908.412 497.133C908.257 496.135 908.549 495.385 909.785 495.153Z" fill="#FFAAAA"/>
        <path d="M888.177 453.602C887.091 453.948 885.894 453.267 885.894 453.267C885.894 453.267 884.024 469.87 875.22 478.471C879.397 475.298 885.378 468.474 888.176 453.603L888.177 453.602ZM862.181 451.64C862.181 451.64 852.185 458.068 858.882 466.76C857.411 462.02 855.495 458.786 862.181 451.64ZM869.582 457.333C869.582 457.333 863.682 461.876 863.574 463.033C863.466 464.19 868.516 459.555 869.582 457.333ZM924.862 472.067C924.862 472.067 919.943 477.419 923.617 484.031C922.9 480.731 922.776 476.086 924.862 472.067ZM901.43 470.528C901.293 470.494 901.137 470.482 900.967 470.499C898.252 470.776 901.986 474.464 902.057 476.95C902.057 476.95 903.489 471.039 901.43 470.528ZM860.497 470.332C860.444 470.627 860.215 474.889 862.207 476.411C861.309 473.713 860.497 470.332 860.497 470.332ZM917.84 489.097C915.159 488.402 912.691 488.971 912.691 488.971C912.691 488.971 915.839 489.587 920.093 490.018C919.358 489.585 918.591 489.291 917.84 489.097ZM860.383 483.478C860.383 483.478 856.972 486.471 854.637 490.613C856.911 488.543 860.383 483.478 860.383 483.478ZM909.741 496.259C911.484 497.858 915.673 499.272 915.411 498.831C915.15 498.39 909.741 496.259 909.741 496.259ZM919.701 499.61C919.701 499.61 920.522 503.014 921.829 504.838C920.74 502.182 919.701 499.61 919.701 499.61ZM865.719 487.615C865.719 487.615 863.537 490.797 862.921 492.479C863.982 491.129 865.719 487.615 865.719 487.615ZM916.926 501.09C916.926 501.09 917.127 505.066 918.193 507.364C917.542 504.174 916.926 501.09 916.926 501.09ZM854.779 491.521C854.749 491.638 856.245 496.044 856.841 497.006C855.979 493.544 855.712 492.382 854.779 491.521ZM862.744 493.776C862.744 493.776 863.546 496.128 864.486 497.085C863.792 495.162 862.744 493.776 862.744 493.776Z" fill="#FFD5D5"/>
        <path d="M895.564 447.869C893.951 451.225 890.129 453.09 886.363 452.129C885.954 452.025 885.563 451.891 885.186 451.731C885.16 451.881 885.136 452.036 885.109 452.185C887.246 453.353 890.563 453.9 894.98 450.909C896.385 454.197 897.893 457.823 905.287 458.9C907.387 463.862 907.725 480.336 903.39 485.578C899.054 490.82 875.511 487.147 873.211 483.942C872.605 484.742 871.892 485.472 871.175 486.073C891.157 499.924 906.226 499.543 910.808 499.005C909.763 498.453 908.862 497.876 908.189 497.341C908.023 495.542 909.279 495.331 909.83 495.165C910.894 495.386 911.852 495.653 912.747 495.961C912.876 495.191 913.027 494.261 913.201 493.178C912.354 492.537 911.719 491.674 911.338 490.915C911.515 491.191 911.743 491.442 912.024 491.659C912.028 491.678 912.506 492.025 913.322 492.435C913.428 492.488 913.536 492.542 913.653 492.597C915.671 493.544 919.315 494.644 923.136 492.927C926.545 490.628 927.992 486.916 927.992 486.916C927.992 486.916 944.173 482.784 933.258 466.633C933.261 466.685 933.262 466.74 933.265 466.793C934.034 468.813 934.8 471.317 934.759 473.215C934.678 476.985 932.649 480.085 930.073 481.543C927.039 482.812 926.506 484.096 925.932 485.689C925.695 487.656 924.247 490.898 922.379 491.656C920.574 492.388 916.771 494.173 911.172 490.625C910.929 490.129 910.827 489.561 910.857 488.946C910.86 488.945 910.863 488.945 910.866 488.944C911.757 488.119 913.444 487.696 914.071 487.56C914.33 485.841 914.61 483.979 914.92 481.818C915.613 471.413 914.487 463.106 911.59 455.973C909.268 457.165 906.51 457.549 903.774 456.851C899.35 455.722 896.234 452.088 895.563 447.868L895.564 447.869ZM865.307 449.29C865.282 449.303 865.258 449.314 865.234 449.327C864.09 450.319 862.229 452.346 860.755 455.921C858.464 461.477 862.118 461.818 862.118 461.818C862.118 461.818 863.386 461.692 864.177 460.317C864.173 460.319 864.168 460.32 864.163 460.322C862.12 458.872 862.801 453.291 865.307 449.29ZM925.873 470.135C925.873 470.135 925.855 470.148 925.852 470.151C925.548 470.962 924.952 472.16 924.938 474.568C924.914 478.469 927.221 478.648 927.847 478.06C924.829 473.951 925.873 470.135 925.873 470.135ZM870.131 455.937C869.824 457.659 869.328 460.294 869.011 461.196C868.527 462.572 866.074 466.839 863.479 467.676C860.885 468.513 859.837 466.571 859.837 466.571C859.837 466.571 860.776 469.806 862.918 470.397C863.756 470.629 864.168 470.535 864.487 470.43C873.812 465.774 870.271 456.3 870.131 455.937ZM899.312 479.134C890.908 483.972 884.077 482.415 884.077 482.415C891.371 485.835 898.317 481.81 899.312 479.134ZM870.88 477.29C871.594 478.78 870.558 479.963 869.843 479.881C866.151 479.507 863.311 477.95 861.992 477.095C862.185 477.335 862.396 477.57 862.629 477.796C865.65 479.963 868.404 480.834 870.125 481.188C871.193 480.483 872.162 479.634 873.051 478.703C872.34 478.198 871.617 477.726 870.88 477.29ZM912.07 488.611C911.964 488.635 911.858 488.66 911.751 488.688C911.858 488.66 911.964 488.635 912.07 488.611ZM921.16 497.984C920.708 498.106 920.273 498.355 920.238 498.865C920.165 499.947 922.527 505.323 922.527 505.323C922.527 505.323 921.834 506.198 921.012 507.458C921.074 508.097 921.134 508.735 921.19 509.372C920.575 510.1 919.897 510.761 919.181 511.381C919.081 511.66 918.974 511.939 918.861 512.219C920.684 510.176 922.88 508.442 924.278 506.052C923.5 503.366 922.796 500.676 921.183 497.994L921.16 497.984L921.16 497.984ZM870.523 485.206C869.483 485.425 864.944 486.218 861.19 484.273C860.859 485.934 858.686 489.808 855.45 490.883C855.45 490.883 856.356 491.114 856.587 491.921C856.817 492.728 857.151 497.768 857.151 497.768L855.505 494.821C856.205 496.357 857.006 497.853 857.66 499.407C857.479 496.517 857.867 493.876 857.12 490.736C858.766 488.97 860.722 487.449 861.803 485.237C864.917 486.008 867.762 486.012 870.609 486.023C870.581 485.75 870.552 485.478 870.523 485.206ZM870.943 486.557C870.255 486.556 869.563 486.552 868.874 486.542C868.407 486.777 867.646 487.05 866.999 486.786C867.118 487.907 864.957 492.842 863.3 493.105C864.426 493.455 865.18 495.142 865.231 498.116C864.791 497.775 864.389 497.427 864.04 497.107C864.76 498.216 865.527 499.298 866.2 500.433C865.701 497.958 865.723 495.633 864.705 493.01C865.917 491.289 867.424 489.741 868.095 487.702C869.699 487.873 871.195 487.832 872.647 487.706C872.074 487.328 871.507 486.945 870.943 486.557ZM918.877 499.543C918.352 499.593 917.819 499.787 917.674 500.352C917.368 501.553 918.862 508.042 918.862 508.042C918.862 508.042 916.855 509.829 915.059 512.091C914.514 513.088 913.993 514.088 913.368 515.079C915.81 513.136 918.602 511.61 920.646 509.195C920.346 506.031 920.127 502.878 918.903 499.559C918.894 499.553 918.885 499.549 918.877 499.543ZM917.053 506.354C916.462 506.859 915.539 507.686 914.666 508.656C914.219 509.372 913.789 510.089 913.282 510.795C914.314 510.079 915.419 509.462 916.474 508.775C916.767 508.368 917.078 507.975 917.412 507.596C917.3 507.181 917.177 506.767 917.053 506.354L917.053 506.354Z" fill="#FF8080"/>
        <path d="M906.686 444.015C906.377 445.228 905.142 445.96 903.929 445.651C902.716 445.341 901.983 444.107 902.293 442.893C902.602 441.68 903.837 440.948 905.05 441.257C906.264 441.567 906.996 442.801 906.686 444.015Z" fill="black"/>
        <path d="M904.9 442.617C904.756 443.179 904.184 443.519 903.622 443.375C903.059 443.231 902.72 442.659 902.863 442.097C903.007 441.534 903.579 441.195 904.141 441.338C904.704 441.482 905.043 442.054 904.9 442.617Z" fill="white"/>
        <path d="M1133.68 133C1133.63 133.133 1133.57 133.265 1133.52 133.398C1130.89 139.903 1130.28 146.988 1129.81 153.932C1129.01 169.167 1130.84 184.594 1135.68 199.065C1140.41 195.915 1143.23 189.904 1142.26 184.232C1142.2 183.478 1142.18 182.723 1142.13 181.969C1147.01 188.858 1151.03 196.653 1151.89 205.164C1152.57 211.682 1151.44 218.22 1149.66 224.476C1147.07 220.961 1144.18 217.304 1139.91 215.789C1139.53 215.661 1139.13 215.576 1138.73 215.522C1141.21 226.742 1143.9 237.951 1145.41 249.35C1145.41 250.198 1145.57 251.207 1145.03 251.919C1143.99 253.001 1142.34 252.873 1140.96 253.003C1134.87 253.159 1128.88 251.724 1123.05 250.131C1107.27 245.595 1092.66 237.442 1079.92 227.166C1079.17 226.647 1078.14 226.906 1077.28 226.706C1074.99 226.426 1072.57 226.116 1070.58 224.873C1069.34 223.961 1070.8 222.534 1071.44 221.738C1075.54 216.947 1079.92 212.254 1083.41 206.982C1081.9 207.572 1080.24 207.805 1078.54 207.584C1073.01 206.869 1069.1 201.707 1069.79 196.053C1070.48 190.4 1075.52 186.396 1081.04 187.111C1084.57 187.568 1087.44 189.841 1088.88 192.9C1089.44 191.272 1090.21 189.72 1090.81 188.104C1096.27 175.037 1102.64 162.296 1110.92 150.776C1115.09 145.099 1119.84 139.704 1125.86 135.968C1128.26 134.518 1130.91 133.455 1133.68 133L1133.68 133Z" fill="black"/>
        <path d="M1132.54 133.952C1128.79 143.11 1125.72 172.652 1135.3 200.119C1137.43 199.054 1144.24 193.518 1142.97 184.362C1151.48 197.562 1153.4 207.785 1149.35 222.902C1142.75 213.959 1137.86 214.81 1137.86 214.81C1137.86 214.81 1145.52 248.025 1144.67 251.219C1143.82 254.413 1111.88 252.071 1080.79 226.947C1089.52 227.586 1093.67 225.991 1093.67 225.991C1093.67 225.991 1075.47 227.587 1070.78 224.18C1070.2 223.239 1078.93 215.35 1084.6 206.416C1086.8 205.193 1088.52 203.151 1089.34 200.634C1090.84 205.946 1095.3 210.106 1100.99 210.843C1108.62 211.831 1115.58 206.304 1116.54 198.495C1117.49 190.686 1112.08 183.554 1104.45 182.566C1103.85 182.489 1103.26 182.449 1102.68 182.449C1098.15 182.452 1094.03 184.711 1091.47 188.293C1097.26 174.352 1113.97 138.069 1132.54 133.952L1132.54 133.952Z" fill="#FFFF00"/>
        <path d="M1126.3 163.911C1126.3 163.911 1126.94 181.581 1128.22 184.774C1129.5 187.968 1136.31 210.54 1136.95 226.935C1132.26 218.631 1128.85 206.067 1129.07 199.893C1129.28 193.719 1127.15 191.164 1126.73 188.183C1126.3 185.202 1123.32 175.195 1126.3 163.911ZM1111.14 185.129C1111.14 185.129 1117.01 187.235 1117.76 195.064C1118.52 202.893 1116.43 208.19 1107.68 212.679C1101.27 215.966 1094.43 211.325 1094.43 211.325C1092.6 210.836 1088.13 215.608 1085.55 221.11C1085.09 223.971 1092.47 224.273 1096.54 223.972C1100.6 223.671 1089.76 225.93 1083.74 225.027C1077.72 224.123 1076.36 225.328 1078.62 222.016C1080.88 218.703 1090.66 211.024 1089.76 202.744C1089.82 202.626 1089.89 202.506 1089.96 202.382C1091.86 206.838 1095.94 210.188 1100.99 210.843C1108.62 211.831 1115.58 206.304 1116.53 198.495C1117.18 193.194 1114.9 188.205 1110.97 185.238C1111 185.222 1111.14 185.129 1111.14 185.129L1111.14 185.129ZM1145.89 194.995C1146 198.402 1143.87 200.638 1143.87 200.638C1143.87 200.638 1146.96 199.149 1148.98 197.765C1149.3 200.427 1145.57 203.406 1145.04 203.832C1144.5 204.258 1148.66 203.087 1148.66 203.087C1148.66 203.087 1146.74 204.258 1146.31 204.47C1145.89 204.683 1151 204.58 1151 204.58L1145.46 207.664L1150.68 207.985C1150.68 207.985 1145.04 208.412 1144.19 208.412C1143.66 208.412 1146.26 209.303 1148.33 209.986C1145.39 209.316 1139.2 207.89 1139.77 207.89C1140.52 207.89 1149.88 204.802 1149.88 204.802L1139.03 205.868C1139.03 205.868 1146.9 202.143 1148.07 198.736C1144.45 201.504 1137.85 203.74 1137.85 203.74C1137.85 203.74 1138.89 202.853 1140.15 201.35C1143.51 199.028 1145.73 195.646 1145.89 194.995ZM1139.98 209.913C1145.42 210.243 1148.33 210.315 1149.38 210.333C1150.14 210.579 1150.68 210.752 1150.68 210.752L1148.12 210.858L1150.57 211.818C1150.57 211.818 1150.57 212.032 1146.31 211.606C1148.44 212.777 1149.3 214.904 1149.51 220.334C1145.31 213.276 1139.5 213.054 1138.49 212.625C1141.7 212.508 1146.74 213.466 1148.5 218.432C1148.5 213.215 1144.88 210.871 1139.98 209.913ZM1125.44 220.961C1125.56 221.749 1125.69 222.491 1125.84 223.195C1125.91 223.905 1125.93 224.659 1125.87 225.444C1125.75 223.996 1125.63 222.49 1125.44 220.961ZM1124.01 221.239C1122.85 223.378 1121.62 223.794 1121.62 223.794C1121.62 223.794 1123.85 223.156 1124.92 222.305C1124.65 223.635 1123.11 224.54 1121.46 224.965C1124.49 224.752 1124.86 225.287 1124.86 225.287H1122.63C1122.63 225.287 1124.28 225.604 1124.86 226.509C1123.32 226.296 1119.81 226.083 1117.36 226.615C1116.61 225.071 1117.09 224.593 1117.09 224.593C1117.67 224.331 1122.68 223.45 1124.01 221.239ZM1126.79 226.601C1128.07 230.369 1129.8 233.012 1131.17 236.167C1133.12 240.684 1129.96 245.801 1131.01 246.705C1132.07 247.608 1133.27 248.06 1141.7 250.921C1112.65 249.114 1093.07 233.458 1084.79 228.189C1090.21 229.544 1097.74 227.736 1097.74 227.736C1094.28 238.577 1115.51 242.493 1117.31 243.848C1119.12 245.203 1123.94 246.257 1125.44 245.052C1126.95 243.848 1128.15 236.47 1127.1 233.609C1126.65 232.378 1126.39 230.783 1126.19 228.97C1126.46 228.235 1126.66 227.44 1126.79 226.601L1126.79 226.601Z" fill="#FFD400"/>
        <path d="M1089.08 198.797C1088.43 204.097 1083.73 207.854 1078.59 207.187C1073.44 206.52 1069.79 201.683 1070.44 196.382C1071.08 191.081 1075.78 187.325 1080.93 187.992C1086.08 188.658 1089.73 193.496 1089.08 198.797Z" fill="#FFFF91"/>
        <path d="M1085.67 196.964C1085.18 200.979 1081.62 203.825 1077.72 203.32C1073.82 202.815 1071.06 199.151 1071.55 195.135C1072.04 191.12 1075.6 188.275 1079.5 188.78C1083.4 189.285 1086.16 192.949 1085.67 196.964Z" fill="white"/>
        <path d="M1082.8 198.746C1082.64 200.054 1081.48 200.982 1080.21 200.817C1078.93 200.653 1078.03 199.459 1078.19 198.15C1078.35 196.842 1079.51 195.915 1080.78 196.079C1082.06 196.244 1082.96 197.438 1082.8 198.746Z" fill="black"/>
        <path d="M1080.81 197.527C1080.73 198.134 1080.19 198.563 1079.6 198.487C1079.02 198.411 1078.6 197.857 1078.67 197.251C1078.75 196.644 1079.28 196.215 1079.87 196.291C1080.46 196.367 1080.88 196.921 1080.81 197.527Z" fill="white"/>
        <path d="M1089.77 195.347C1088.88 202.668 1093.92 209.349 1101.03 210.27C1108.14 211.191 1114.63 206.003 1115.53 198.682C1116.42 191.361 1111.38 184.679 1104.27 183.758C1097.16 182.837 1090.67 188.025 1089.77 195.347Z" fill="#FFFF8B"/>
        <path d="M1091.2 193.716C1090.53 199.173 1094.36 204.163 1099.74 204.86C1105.12 205.557 1110.03 201.699 1110.7 196.241C1111.36 190.784 1107.54 185.795 1102.16 185.097C1096.77 184.4 1091.87 188.259 1091.2 193.716Z" fill="white"/>
        <path d="M1103.35 198.501C1103.19 199.809 1102.03 200.736 1100.76 200.572C1099.49 200.407 1098.59 199.213 1098.75 197.905C1098.91 196.597 1100.07 195.67 1101.34 195.834C1102.61 195.999 1103.51 197.193 1103.35 198.501Z" fill="black"/>
        <path d="M1101.36 197.282C1101.29 197.888 1100.75 198.318 1100.16 198.242C1099.57 198.166 1099.16 197.612 1099.23 197.006C1099.3 196.399 1099.84 195.969 1100.43 196.046C1101.02 196.122 1101.44 196.675 1101.36 197.282Z" fill="white"/>
        <path d="M1065.65 183.765C1066.55 183.163 1065.65 177.893 1072.72 179.098C1069.41 172.925 1062.94 175.785 1065.65 183.765Z" fill="black"/>
        <path d="M1111.71 175.332C1111.71 175.332 1115.48 170.514 1118.49 173.224C1121.5 175.934 1117.89 181.354 1117.89 181.354C1117.89 181.354 1118.49 175.482 1111.71 175.332Z" fill="black"/>
        <path d="M1121.5 144.023C1110.47 157.128 1101.02 179.891 1101.02 179.891C1101.02 179.891 1098.68 179.679 1096.76 181.596C1108.47 156.471 1121.5 144.022 1121.5 144.022L1121.5 144.023ZM1143.82 187.761C1143.97 188.137 1143.59 196.119 1137.41 200.109C1136.81 200.034 1137.12 199.58 1137.12 199.58C1137.12 199.58 1143.82 193.859 1143.82 187.761L1143.82 187.761ZM1088.67 205.442C1085.79 210.446 1081.97 216.09 1077.17 220.455C1075.91 221.611 1074.83 223.117 1075.04 224.181C1072.06 223.542 1073.13 222.051 1075.89 219.922C1078.66 217.792 1085.9 207.574 1085.9 207.574L1088.67 205.442V205.442ZM1123.7 218.958C1122.43 223.734 1118.21 223.421 1117.73 223.211C1122.56 221.799 1123.53 219.573 1123.7 218.958Z" fill="#FFFF91"/>
        <path d="M1109.96 172.015C1109.96 172.015 1118.38 180.947 1120.79 190.305C1123.06 199.076 1115.28 207.997 1121.03 219.281C1121.11 219.437 1121.19 219.595 1121.26 219.752C1122.5 218.361 1123.69 216.601 1124.01 214.712C1127.18 219.53 1127.63 225.251 1126.12 229.166C1125.39 228.764 1124.56 228.471 1123.71 228.257C1124.88 237.016 1122.52 245.047 1122.52 245.047C1122.52 245.047 1124.52 237.764 1121.55 230.385C1121.18 229.478 1120.84 228.613 1120.51 227.764C1118.85 227.646 1117.61 227.735 1117.61 227.735C1117.61 227.735 1122.74 226.512 1125.52 227.717C1126.94 222.029 1124.01 217.27 1124.01 217.27C1124.01 217.27 1122.88 220.659 1118.75 222.442C1118.71 222.468 1118.66 222.494 1118.62 222.519C1118.62 222.513 1118.62 222.507 1118.62 222.501C1118.39 222.594 1118.16 222.684 1117.92 222.767C1117.92 222.767 1118.16 222.591 1118.55 222.289C1116.72 216.27 1116.22 210.247 1118.3 199.747C1120.8 187.188 1109.96 172.014 1109.96 172.014L1109.96 172.015ZM1144.56 190.112C1145.09 197.564 1137.85 203.741 1137.85 203.741C1137.85 203.741 1144.45 201.505 1148.07 198.737C1146.9 202.144 1139.03 205.869 1139.03 205.869L1149.88 204.803C1149.88 204.803 1140.52 207.891 1139.77 207.891C1139.03 207.891 1149.88 210.34 1149.88 210.34C1149.88 210.34 1147.01 210.339 1139.98 209.913C1144.88 210.872 1148.5 213.216 1148.5 218.433C1146.58 213.003 1140.73 212.364 1137.64 212.684C1137.96 207.68 1135.62 202.676 1135.62 202.037C1139.98 201.292 1143.92 195.009 1144.56 190.113V190.112ZM1126.99 197.565C1124.87 215.877 1134.02 226.098 1137 232.273C1139.98 238.448 1137.21 246.537 1137.21 246.537L1131.68 245.259C1131.68 245.259 1135.94 238.444 1128.7 224.605C1121.46 210.765 1127 197.565 1127 197.565L1126.99 197.565Z" fill="black"/>
        <path d="M1122.32 150.29C1122.32 150.29 1116.99 163.065 1124.45 182.441C1122.96 168.388 1122.32 150.29 1122.32 150.29Z" fill="black"/>
        <path d="M1123.19 223.595C1123.19 223.595 1119.66 224.875 1117.4 224.95C1117.02 225.627 1117.47 226.154 1117.47 226.154L1122.89 225.853L1118.26 225.477C1118.26 225.477 1122.1 224.31 1123.19 223.595Z" fill="black"/>
        <path d="M1120.93 182.109C1129.06 197.466 1122.43 215.383 1122.13 217.039C1122.13 217.039 1119.87 211.317 1121.68 204.392C1123.49 197.466 1122.74 189.184 1120.93 182.109ZM1119.57 229.234C1119.57 229.234 1122.89 235.105 1121.23 242.633C1118.82 237.364 1118.52 232.546 1119.57 229.234Z" fill="white"/>
        <path d="M351.271 176C351.352 176.201 351.434 176.401 351.515 176.602C355.408 186.444 356.312 197.164 357.009 207.673C358.193 230.724 355.477 254.066 348.308 275.963C341.31 271.197 337.127 262.1 338.569 253.518C338.652 252.378 338.683 251.235 338.753 250.094C331.525 260.519 325.577 272.312 324.299 285.191C323.286 295.053 324.965 304.945 327.597 314.411C331.442 309.093 335.724 303.56 342.046 301.267C342.611 301.074 343.197 300.945 343.787 300.864C340.122 317.841 336.14 334.801 333.902 352.048C333.893 353.331 333.653 354.858 334.459 355.936C336.003 357.572 338.45 357.379 340.494 357.576C349.514 357.811 358.383 355.641 367.018 353.23C390.401 346.367 412.042 334.03 430.919 318.481C432.034 317.696 433.555 318.088 434.839 317.785C438.231 317.363 441.811 316.893 444.757 315.013C446.598 313.633 444.434 311.473 443.481 310.269C437.418 303.02 430.925 295.918 425.759 287.941C427.984 288.835 430.443 289.187 432.973 288.852C441.155 287.77 446.953 279.96 445.93 271.406C444.906 262.851 437.445 256.793 429.264 257.875C424.033 258.567 419.777 262.006 417.654 266.634C416.821 264.171 415.681 261.823 414.788 259.377C406.704 239.606 397.264 220.327 384.992 202.896C378.821 194.307 371.782 186.144 362.863 180.49C359.307 178.296 355.386 176.688 351.269 176L351.271 176Z" fill="black"/>
        <path d="M352.968 177.44C358.527 191.298 363.07 235.998 348.874 277.558C345.72 275.947 335.626 267.569 337.519 253.715C324.901 273.689 322.062 289.156 328.055 312.03C337.834 298.499 345.089 299.786 345.089 299.786C345.089 299.786 333.737 350.043 334.999 354.877C336.261 359.709 383.575 356.166 429.632 318.15C416.698 319.117 410.549 316.703 410.549 316.703C410.549 316.703 437.519 319.119 444.46 313.964C445.318 312.54 432.397 300.604 423.987 287.085C420.734 285.235 418.177 282.145 416.963 278.337C414.744 286.374 408.14 292.668 399.702 293.784C388.399 295.279 378.091 286.916 376.677 275.101C375.263 263.285 383.278 252.493 394.582 250.998C395.465 250.881 396.342 250.821 397.21 250.822C403.913 250.826 410.024 254.243 413.811 259.664C405.23 238.569 380.473 183.67 352.971 177.44L352.968 177.44Z" fill="#87CDDE"/>
        <path d="M362.208 222.771C362.208 222.771 361.262 249.507 359.369 254.339C357.477 259.172 347.381 293.325 346.435 318.133C353.375 305.568 358.425 286.557 358.11 277.215C357.794 267.873 360.945 264.008 361.576 259.498C362.207 254.987 366.625 239.845 362.208 222.771ZM384.666 254.876C384.666 254.876 375.972 258.063 374.856 269.909C373.741 281.755 376.828 289.77 389.798 296.562C399.296 301.536 409.427 294.513 409.427 294.513C412.138 293.773 418.756 300.993 422.589 309.319C423.259 313.648 412.33 314.105 406.307 313.649C400.285 313.193 416.344 316.612 425.266 315.245C434.188 313.878 436.193 315.701 432.847 310.689C429.501 305.677 415.005 294.058 416.343 281.529C416.256 281.351 416.154 281.168 416.046 280.982C413.228 287.725 407.191 292.793 399.704 293.784C388.401 295.279 378.093 286.916 376.679 275.1C375.719 267.079 379.105 259.53 384.915 255.041C384.878 255.017 384.666 254.875 384.666 254.875L384.666 254.876ZM333.186 269.804C333.028 274.959 336.182 278.342 336.182 278.342C336.182 278.342 331.608 276.09 328.611 273.996C328.138 278.023 333.663 282.531 334.451 283.175C335.24 283.819 329.087 282.048 329.087 282.048C329.087 282.048 331.927 283.819 332.559 284.141C333.189 284.464 325.615 284.307 325.615 284.307L333.819 288.974L326.091 289.46C326.091 289.46 334.449 290.106 335.711 290.106C336.49 290.106 332.639 291.454 329.579 292.486C333.93 291.474 343.103 289.316 342.254 289.316C341.15 289.316 327.27 284.644 327.27 284.644L343.357 286.256C343.357 286.256 331.687 280.62 329.952 275.465C335.315 279.653 345.093 283.037 345.093 283.037C345.093 283.037 343.558 281.695 341.692 279.419C336.71 275.907 333.427 270.789 333.186 269.804ZM341.941 292.376C333.878 292.875 329.579 292.985 328.016 293.011C326.896 293.384 326.091 293.646 326.091 293.646L329.876 293.807L326.248 295.259C326.248 295.259 326.25 295.583 332.559 294.939C329.404 296.711 328.142 299.928 327.827 308.144C334.044 297.465 342.656 297.128 344.158 296.48C339.4 296.303 331.922 297.752 329.325 305.266C329.325 297.373 334.685 293.826 341.941 292.376ZM363.479 309.094C363.309 310.286 363.108 311.408 362.884 312.474C362.785 313.548 362.762 314.689 362.841 315.876C363.018 313.685 363.205 311.407 363.479 309.094ZM365.61 309.513C367.321 312.751 369.146 313.379 369.146 313.379C369.146 313.379 365.835 312.415 364.258 311.126C364.652 313.14 366.94 314.508 369.384 315.152C364.889 314.83 364.339 315.638 364.339 315.638H367.649C367.649 315.638 365.207 316.119 364.339 317.488C366.626 317.166 371.829 316.843 375.457 317.648C376.561 315.313 375.852 314.589 375.852 314.589C374.998 314.193 367.572 312.859 365.61 309.513ZM361.489 317.626C359.591 323.328 357.026 327.328 355 332.102C352.101 338.936 356.789 346.679 355.227 348.046C353.666 349.413 351.88 350.096 339.389 354.425C382.438 351.691 411.435 328.002 423.703 320.03C415.673 322.08 404.523 319.345 404.523 319.345C409.654 335.747 378.198 341.673 375.523 343.723C372.848 345.773 365.711 347.368 363.481 345.545C361.25 343.723 359.464 332.56 361.026 328.231C361.698 326.368 362.077 323.955 362.367 321.212C361.972 320.1 361.679 318.896 361.491 317.628L361.489 317.626Z" fill="#5ABAD2"/>
        <path d="M417.351 275.556C418.311 283.576 425.272 289.26 432.9 288.252C440.528 287.243 445.933 279.923 444.974 271.903C444.014 263.882 437.053 258.199 429.425 259.208C421.797 260.216 416.392 267.536 417.351 275.556Z" fill="#C8E8F0"/>
        <path d="M422.401 272.784C423.128 278.859 428.401 283.165 434.178 282.4C439.956 281.636 444.051 276.092 443.324 270.017C442.597 263.941 437.324 259.636 431.546 260.4C425.769 261.164 421.674 266.709 422.401 272.784Z" fill="white"/>
        <path d="M426.661 275.48C426.898 277.46 428.616 278.863 430.499 278.614C432.381 278.365 433.715 276.558 433.479 274.579C433.242 272.599 431.524 271.196 429.641 271.445C427.758 271.694 426.424 273.501 426.661 275.48Z" fill="black"/>
        <path d="M429.61 273.635C429.719 274.553 430.516 275.203 431.389 275.088C432.261 274.973 432.88 274.135 432.77 273.217C432.66 272.3 431.864 271.649 430.991 271.765C430.118 271.88 429.5 272.718 429.61 273.635Z" fill="white"/>
        <path d="M416.325 270.336C417.651 281.414 410.184 291.523 399.648 292.917C389.112 294.31 379.497 286.46 378.171 275.383C376.846 264.305 384.312 254.196 394.848 252.802C405.385 251.409 415 259.259 416.325 270.336Z" fill="#C8E8F0"/>
        <path d="M414.214 267.869C415.201 276.126 409.536 283.676 401.559 284.731C393.582 285.786 386.315 279.947 385.327 271.69C384.339 263.432 390.004 255.883 397.981 254.828C405.958 253.773 413.226 259.612 414.214 267.869Z" fill="white"/>
        <path d="M396.206 275.109C396.443 277.088 398.161 278.491 400.044 278.242C401.926 277.993 403.26 276.187 403.024 274.207C402.787 272.228 401.069 270.825 399.186 271.074C397.303 271.323 395.969 273.129 396.206 275.109Z" fill="black"/>
        <path d="M399.155 273.264C399.264 274.182 400.061 274.832 400.934 274.717C401.806 274.602 402.425 273.764 402.315 272.846C402.205 271.929 401.409 271.278 400.536 271.394C399.663 271.509 399.045 272.347 399.155 273.264Z" fill="white"/>
        <path d="M452.068 252.812C450.729 251.901 452.068 243.927 441.584 245.75C446.491 236.41 456.083 240.738 452.068 252.812Z" fill="black"/>
        <path d="M383.82 240.052C383.82 240.052 378.244 232.762 373.783 236.863C369.322 240.963 374.675 249.165 374.675 249.165C374.675 249.165 373.783 240.28 383.82 240.052Z" fill="black"/>
        <path d="M369.32 192.679C385.663 212.508 399.661 246.951 399.661 246.951C399.661 246.951 403.132 246.63 405.971 249.53C388.622 211.514 369.32 192.678 369.32 192.678L369.32 192.679ZM336.258 258.859C336.035 259.428 336.598 271.505 345.743 277.542C346.635 277.429 346.186 276.742 346.186 276.742C346.186 276.742 336.258 268.085 336.258 258.858L336.258 258.859ZM417.962 285.612C422.22 293.183 427.892 301.723 434.99 308.327C436.87 310.076 438.464 312.355 438.148 313.966C442.564 312.999 440.989 310.742 436.888 307.521C432.787 304.299 422.061 288.837 422.061 288.837L417.962 285.611V285.612ZM366.054 306.063C367.95 313.289 374.199 312.815 374.901 312.497C367.749 310.361 366.32 306.993 366.054 306.063Z" fill="#C8E8F0"/>
        <path d="M386.416 235.033C386.416 235.033 373.944 248.548 370.366 262.707C367.012 275.979 378.532 289.478 370.015 306.552C369.897 306.788 369.786 307.026 369.674 307.264C367.836 305.159 366.079 302.496 365.597 299.637C360.912 306.927 360.24 315.584 362.471 321.508C363.562 320.9 364.789 320.456 366.04 320.132C364.31 333.386 367.803 345.537 367.803 345.537C367.803 345.537 364.849 334.518 369.252 323.352C369.793 321.981 370.3 320.671 370.793 319.387C373.239 319.208 375.076 319.343 375.076 319.343C375.076 319.343 367.49 317.493 363.363 319.315C361.261 310.709 365.596 303.509 365.596 303.509C365.596 303.509 367.27 308.636 373.394 311.335C373.46 311.373 373.523 311.413 373.589 311.451C373.592 311.442 373.592 311.432 373.594 311.423C373.927 311.564 374.268 311.7 374.627 311.826C374.627 311.826 374.262 311.56 373.692 311.103C376.407 301.995 377.142 292.882 374.054 276.994C370.361 257.992 386.416 235.031 386.416 235.031L386.416 235.033ZM335.157 262.415C334.369 273.691 345.091 283.038 345.091 283.038C345.091 283.038 335.312 279.655 329.95 275.466C331.685 280.621 343.355 286.258 343.355 286.258L327.268 284.645C327.268 284.645 341.148 289.317 342.252 289.317C343.356 289.317 327.268 293.023 327.268 293.023C327.268 293.023 331.528 293.021 341.938 292.377C334.683 293.827 329.322 297.374 329.322 305.267C332.162 297.052 340.836 296.086 345.41 296.569C344.937 288.998 348.406 281.425 348.406 280.459C341.939 279.331 336.103 269.826 335.157 262.417V262.415ZM361.179 273.693C364.334 301.401 350.773 316.866 346.357 326.21C341.941 335.553 346.038 347.792 346.038 347.792L354.241 345.859C354.241 345.859 347.934 335.547 358.659 314.606C369.385 293.665 361.179 273.693 361.179 273.693L361.179 273.693Z" fill="black"/>
        <path d="M368.109 202.161C368.109 202.161 375.995 221.492 364.954 250.809C367.162 229.545 368.109 202.161 368.109 202.161Z" fill="black"/>
        <path d="M366.811 313.078C366.811 313.078 372.052 315.015 375.398 315.128C375.956 316.154 375.287 316.951 375.287 316.951L367.257 316.495L374.116 315.926C374.116 315.926 368.428 314.16 366.811 313.078Z" fill="black"/>
        <path d="M370.167 250.306C358.122 273.542 367.937 300.653 368.383 303.159C368.383 303.159 371.73 294.501 369.053 284.022C366.377 273.543 367.49 261.012 370.167 250.306ZM372.173 321.611C372.173 321.611 367.265 330.495 369.718 341.885C373.287 333.912 373.735 326.623 372.173 321.611Z" fill="#2B869D"/>
    </g>
    <defs>
        <clipPath id="clip0_1293_4">
            <rect width="1440" height="635" fill="white"/>
        </clipPath>
    </defs>
</svg>
